<?xml version="1.0" standalone="no"?>
<!DOCTYPE svg PUBLIC "-//W3C//DTD SVG 20010904//EN"
 "http://www.w3.org/TR/2001/REC-SVG-20010904/DTD/svg10.dtd">
<svg version="1.0" xmlns="http://www.w3.org/2000/svg"
 width="891.000000pt" height="891.000000pt" viewBox="0 0 891.000000 891.000000"
 preserveAspectRatio="xMidYMid meet">
<metadata>
Created by potrace 1.11, written by Peter Selinger 2001-2013
</metadata>
<g transform="translate(0.000000,891.000000) scale(0.100000,-0.100000)"
fill="#000000" stroke="none">
<path d="M5051 7387 c-6 -6 -40 -12 -76 -13 -37 0 -70 -6 -80 -14 -8 -7 -18
-10 -22 -6 -3 3 -1 6 5 6 7 0 12 5 12 10 0 6 -13 4 -29 -5 -20 -10 -32 -11
-36 -4 -5 7 -14 4 -28 -8 -14 -13 -18 -14 -13 -3 4 8 1 6 -8 -4 -13 -16 -18
-17 -31 -6 -12 10 -15 10 -15 0 0 -7 -8 -10 -19 -7 -10 2 -25 0 -34 -4 -9 -6
-18 -5 -22 0 -8 15 -35 2 -36 -18 0 -12 -2 -11 -9 4 -7 19 -8 19 -15 2 -6 -15
-10 -16 -16 -5 -7 10 -9 10 -9 1 0 -7 -11 -13 -24 -13 -14 0 -28 -5 -31 -10
-4 -6 -10 -8 -15 -5 -5 3 -11 1 -15 -5 -4 -6 -11 -8 -16 -4 -6 3 -20 -2 -32
-13 -14 -12 -17 -12 -9 -2 9 13 9 16 -3 16 -8 0 -15 -6 -15 -13 0 -6 -7 -14
-15 -18 -8 -3 -15 -1 -15 3 0 5 -8 8 -17 6 -10 -2 -21 -4 -25 -4 -4 -1 -5 -7
-2 -14 3 -8 -2 -14 -10 -14 -8 0 -13 4 -11 8 3 4 -6 2 -19 -4 -16 -8 -21 -14
-13 -19 7 -5 8 -8 1 -8 -5 0 -16 6 -23 13 -11 10 -12 9 -6 -2 6 -11 4 -13 -9
-8 -14 6 -17 3 -12 -9 6 -15 4 -15 -11 -3 -15 12 -16 12 -10 -4 6 -15 4 -16
-13 -7 -11 6 -20 7 -19 3 3 -20 -2 -27 -11 -13 -7 12 -12 12 -29 -4 -11 -10
-18 -24 -14 -30 4 -6 -2 -4 -12 4 -15 12 -17 12 -10 1 6 -11 4 -13 -10 -7 -16
6 -16 4 -4 -10 13 -16 12 -16 -10 -4 -21 11 -23 10 -18 -4 6 -14 3 -15 -14 -5
-15 8 -19 8 -15 0 4 -6 2 -11 -4 -11 -6 0 -8 -5 -4 -12 6 -10 4 -10 -8 0 -19
15 -34 0 -22 -20 5 -9 2 -9 -9 1 -15 12 -17 11 -17 -2 0 -9 -5 -19 -12 -23 -8
-5 -9 -2 -4 12 6 16 4 16 -14 -4 -12 -12 -26 -19 -32 -16 -7 5 -8 2 -3 -6 6
-10 4 -12 -8 -7 -10 4 -16 2 -14 -6 1 -7 -4 -11 -10 -10 -7 2 -13 -5 -13 -15
0 -11 -3 -13 -8 -6 -5 9 -11 8 -20 -2 -7 -8 -9 -14 -5 -14 12 0 -20 -20 -32
-20 -5 0 -3 4 5 10 8 5 12 12 9 15 -10 9 -70 -65 -63 -77 4 -7 2 -8 -5 -4 -6
4 -8 13 -4 19 4 7 0 6 -10 -2 -9 -7 -15 -17 -12 -21 3 -5 0 -12 -6 -16 -8 -4
-9 -3 -5 4 4 7 2 12 -3 12 -6 0 -11 -7 -11 -16 0 -8 -4 -12 -10 -9 -5 3 -10 1
-10 -5 0 -6 -5 -8 -12 -4 -8 5 -7 0 2 -11 14 -17 14 -18 -7 -6 -20 10 -22 9
-16 -6 5 -12 2 -15 -10 -10 -12 4 -15 1 -12 -14 4 -18 2 -19 -12 -7 -12 9 -15
9 -9 1 4 -7 2 -13 -3 -13 -6 0 -10 -6 -8 -12 1 -8 -6 -12 -17 -10 -12 2 -16
-1 -10 -9 5 -9 2 -10 -11 -5 -16 6 -16 4 -4 -11 7 -10 9 -15 5 -11 -9 8 -43
-31 -39 -44 2 -4 -5 -4 -14 -1 -11 4 -14 3 -9 -5 5 -8 2 -10 -8 -6 -10 4 -17
-2 -22 -20 -3 -14 -10 -26 -16 -26 -5 0 -6 5 -3 10 3 6 4 10 1 10 -3 0 -10
-10 -17 -21 -9 -17 -8 -20 3 -14 7 5 4 -1 -7 -12 -11 -11 -23 -19 -27 -16 -5
2 -8 -1 -8 -7 0 -6 -5 -8 -12 -4 -9 5 -9 2 1 -9 12 -15 11 -17 -7 -17 -13 0
-19 -6 -18 -17 0 -11 -5 -17 -13 -15 -12 3 -12 1 -1 -13 11 -14 11 -16 -1 -13
-8 2 -17 7 -20 11 -3 5 -9 1 -12 -8 -4 -9 -3 -13 3 -10 6 3 10 1 10 -4 0 -6
-3 -11 -8 -11 -4 0 -16 -16 -26 -35 -10 -19 -27 -37 -37 -40 -15 -5 -17 -10
-9 -25 9 -16 8 -18 -7 -13 -12 5 -15 2 -10 -10 4 -11 2 -14 -9 -10 -11 4 -15
0 -12 -13 2 -13 -3 -19 -17 -19 -11 0 -19 -5 -17 -10 1 -6 6 -10 11 -10 5 0
13 -4 18 -8 4 -5 4 -8 -2 -7 -28 6 -38 0 -25 -15 11 -13 10 -14 -3 -10 -8 4
-18 1 -23 -6 -4 -7 -3 -10 3 -6 5 3 10 0 10 -7 0 -8 -9 -12 -21 -10 -12 3 -16
2 -9 -2 16 -7 5 -34 -16 -34 -9 0 -12 -3 -6 -8 17 -12 16 -32 -2 -25 -11 4
-14 3 -9 -6 5 -7 0 -18 -10 -27 -11 -9 -13 -13 -6 -9 6 3 12 1 12 -4 0 -6 -7
-11 -15 -11 -9 0 -15 -10 -15 -26 0 -15 -4 -23 -10 -19 -6 4 -9 3 -8 -2 5 -18
-14 -53 -25 -47 -8 5 -8 2 1 -7 15 -17 16 -33 0 -23 -8 5 -9 2 -5 -9 3 -10 2
-17 -3 -17 -6 0 -10 -9 -10 -21 0 -13 -4 -18 -12 -13 -7 4 -10 4 -6 -1 4 -4 3
-14 -3 -21 -7 -8 -7 -14 1 -19 8 -5 5 -12 -9 -21 -11 -8 -18 -21 -14 -29 3 -9
-1 -22 -8 -31 -10 -13 -10 -17 2 -25 12 -7 11 -9 -3 -9 -12 0 -15 -6 -10 -22
4 -16 2 -19 -9 -13 -11 7 -11 5 1 -10 12 -15 12 -17 1 -10 -11 6 -13 4 -8 -8
3 -10 2 -17 -4 -17 -6 0 -8 -4 -5 -9 4 -5 0 -12 -6 -14 -8 -3 -5 -6 5 -6 17
-1 17 -2 3 -17 -9 -8 -16 -29 -16 -45 0 -22 -4 -28 -12 -23 -8 5 -7 0 2 -11 9
-11 10 -16 3 -11 -7 4 -13 2 -13 -3 0 -6 5 -11 11 -11 5 0 7 -5 4 -10 -4 -6
-10 -8 -14 -6 -4 3 -5 -9 -3 -26 3 -21 1 -29 -7 -24 -7 5 -9 1 -5 -8 4 -10 1
-16 -7 -16 -11 0 -11 -2 1 -10 8 -5 15 -20 16 -34 0 -14 -3 -23 -8 -20 -4 3
-5 10 -2 16 4 6 2 8 -4 4 -6 -3 -7 -17 -3 -34 5 -19 3 -31 -8 -40 -9 -8 -10
-10 -2 -6 10 5 11 1 6 -16 -5 -15 -4 -20 4 -16 7 5 9 1 5 -8 -3 -9 -9 -14 -13
-12 -4 3 -7 -6 -7 -19 0 -13 3 -22 7 -19 4 2 11 -1 15 -7 4 -7 3 -9 -2 -6 -6
3 -16 2 -24 -4 -13 -7 -13 -9 1 -9 11 0 15 -8 14 -27 -1 -16 3 -34 9 -42 9
-12 7 -12 -12 -2 -23 12 -23 12 -7 -13 11 -16 13 -26 6 -26 -6 0 -11 5 -11 12
0 6 -2 9 -5 6 -10 -9 7 -38 18 -31 6 4 7 1 1 -8 -12 -20 -13 -59 -1 -59 5 0 3
-8 -4 -17 -8 -9 -9 -14 -3 -10 6 3 11 1 12 -6 1 -7 3 -26 5 -43 2 -25 0 -31
-13 -27 -11 3 -10 1 3 -10 14 -11 15 -16 5 -20 -10 -4 -10 -6 0 -6 6 -1 12 -5
12 -11 0 -5 -8 -6 -17 -3 -17 7 -17 6 0 -11 9 -10 15 -22 12 -27 -4 -5 0 -9 7
-9 8 0 9 -3 3 -8 -6 -4 -12 -18 -13 -32 -1 -18 1 -21 8 -10 5 8 6 18 3 24 -3
5 -2 6 3 3 5 -3 9 -18 8 -34 -1 -15 4 -35 10 -43 10 -13 9 -13 -9 0 -19 15
-19 14 -3 -11 10 -16 13 -31 8 -40 -6 -8 -4 -19 4 -29 17 -19 28 -62 14 -54
-5 3 -3 -7 5 -22 8 -16 12 -35 9 -43 -3 -10 1 -12 14 -8 18 7 18 6 1 -7 -12
-9 -14 -15 -6 -18 7 -2 13 -22 13 -45 1 -23 4 -39 8 -37 9 6 21 -16 24 -43 2
-15 -1 -21 -8 -17 -6 4 -8 2 -4 -4 3 -6 15 -9 26 -7 19 4 19 3 3 -23 -15 -23
-15 -25 -2 -14 14 10 16 9 13 -13 -2 -20 1 -24 10 -15 10 8 12 5 8 -15 -3 -16
0 -25 8 -25 10 0 10 -3 1 -14 -10 -11 -8 -16 8 -21 12 -3 21 -11 21 -16 0 -6
-6 -7 -12 -3 -9 5 -9 3 1 -9 7 -9 16 -15 20 -13 4 3 7 -11 7 -29 0 -18 -4 -32
-7 -29 -4 2 -10 0 -13 -5 -4 -5 2 -12 11 -14 17 -4 17 -5 1 -6 -11 -1 -15 -6
-12 -16 4 -8 0 -23 -7 -32 -10 -12 -10 -15 -1 -9 6 4 12 2 12 -3 0 -6 -6 -11
-12 -11 -10 0 -10 -2 0 -9 19 -11 17 -24 -5 -32 -16 -7 -16 -8 -1 -8 12 -1 15
-6 11 -17 -5 -13 -7 -13 -14 -2 -5 7 -9 9 -9 4 0 -5 8 -18 17 -28 16 -18 16
-18 0 -12 -13 5 -16 2 -10 -12 5 -13 3 -15 -8 -10 -8 4 -3 -2 10 -13 14 -13
18 -21 10 -21 -16 0 -19 -107 -3 -118 15 -11 17 -44 2 -53 -10 -7 -10 -9 0 -9
10 0 10 -5 1 -22 -11 -21 -11 -22 5 -9 14 12 16 12 10 -3 -3 -9 0 -24 7 -33
12 -15 12 -16 -5 -9 -20 7 -20 7 0 -15 11 -14 13 -19 4 -14 -13 8 -13 6 -2 -8
8 -9 10 -22 6 -28 -4 -7 -3 -9 4 -6 6 5 8 -1 4 -15 -4 -16 -2 -19 8 -13 9 6
11 4 5 -6 -5 -7 -10 -22 -10 -33 -2 -19 -2 -19 13 0 14 19 15 19 8 0 -4 -11
-1 -23 6 -29 9 -6 8 -7 -4 -3 -10 3 -18 1 -18 -4 0 -6 5 -10 11 -10 5 0 7 -6
3 -12 -5 -8 0 -7 11 2 17 14 18 14 8 -5 -9 -15 -8 -22 5 -33 10 -7 12 -11 6
-8 -7 3 -15 -1 -18 -10 -3 -8 -2 -13 3 -10 5 3 14 -1 21 -9 10 -12 10 -15 -1
-15 -10 -1 -9 -4 3 -14 12 -9 14 -16 7 -23 -8 -8 -5 -15 8 -24 23 -18 28 -40
11 -50 -8 -5 -2 -7 15 -5 15 1 30 6 35 10 4 4 0 6 -8 4 -11 -2 -14 5 -13 30 1
24 -3 32 -15 33 -14 0 -15 2 -2 7 8 4 16 13 18 21 3 12 0 12 -12 2 -11 -9 -16
-9 -22 0 -4 8 -3 9 4 5 15 -9 16 36 1 51 -8 8 -7 13 2 18 8 6 10 4 4 -5 -6 -9
-4 -11 5 -5 10 6 9 11 -5 21 -10 8 -15 17 -12 21 4 3 -1 16 -10 27 -10 12 -11
15 -3 9 18 -16 38 -17 22 -1 -8 8 -8 16 0 32 10 19 10 20 -6 7 -14 -12 -16
-12 -10 3 4 10 1 16 -7 16 -9 1 -8 4 4 11 9 5 17 15 17 20 0 6 -3 8 -7 6 -5
-3 -8 5 -8 18 0 13 4 21 9 18 4 -3 5 5 1 17 -5 17 -4 21 5 15 9 -6 11 -4 6 4
-5 7 -15 10 -23 7 -8 -3 -11 -1 -8 4 3 6 14 10 23 11 11 0 13 2 4 6 -9 4 -10
8 -2 18 8 10 8 15 0 20 -8 5 -8 11 0 21 7 7 13 27 14 43 2 26 0 28 -13 18 -9
-6 -5 1 8 16 14 15 20 27 15 27 -5 0 -9 11 -9 24 0 19 3 22 13 14 9 -8 11 -7
6 7 -5 11 -3 16 2 12 6 -3 11 4 11 16 2 17 0 19 -7 7 -7 -11 -10 -11 -10 -2 0
7 7 15 16 19 13 5 13 7 2 14 -7 5 -8 9 -2 9 6 0 10 13 9 29 -1 19 2 28 10 24
7 -2 15 3 19 12 3 9 2 13 -4 10 -15 -9 -12 11 3 27 8 7 19 25 26 38 12 24 12
24 -5 5 -15 -18 -16 -18 -10 -2 3 10 6 21 6 23 0 2 6 4 14 4 9 0 13 9 12 25
-2 13 1 22 5 19 5 -3 9 1 9 9 0 8 7 17 15 21 8 3 15 14 15 25 0 11 5 23 10 26
6 4 7 12 3 18 -4 7 2 5 12 -3 17 -14 18 -14 6 9 -8 15 -9 21 -2 17 6 -4 11 -3
11 3 0 5 10 13 21 16 16 5 18 9 9 15 -9 6 -7 11 9 19 11 7 21 19 21 27 0 11 6
14 16 10 8 -3 13 -2 10 3 -3 5 1 14 9 21 8 7 15 19 15 26 0 8 6 14 14 14 8 0
18 5 22 12 4 7 3 8 -4 4 -19 -12 -14 3 9 27 12 12 19 16 15 10 -5 -9 -2 -11 8
-7 8 3 12 12 9 20 -3 10 2 14 18 14 17 0 20 3 11 9 -10 6 -7 10 12 15 17 4 24
11 20 18 -5 8 -1 9 11 4 15 -5 16 -4 6 8 -11 13 -9 15 8 11 12 -2 19 0 16 5
-3 5 4 11 15 15 11 3 20 13 20 20 0 9 6 12 17 8 12 -5 14 -3 8 7 -6 10 -4 12
10 6 16 -6 16 -4 4 11 -10 12 -10 15 -1 9 16 -9 44 12 35 27 -3 6 -1 7 5 3 6
-4 9 -14 6 -24 -3 -9 1 -6 9 7 11 18 16 20 20 10 4 -10 6 -10 6 3 1 9 6 20 13
24 6 4 8 3 4 -4 -3 -6 7 -4 24 4 16 9 30 20 30 25 0 6 5 7 12 3 8 -5 9 -1 4
12 -5 15 -4 16 5 7 14 -14 42 -5 32 11 -4 6 2 4 12 -4 11 -9 16 -10 11 -2 -4
7 -1 12 9 12 9 0 14 4 11 8 -3 5 1 9 9 9 8 0 12 -3 10 -7 -2 -4 2 -7 9 -7 8 0
12 6 9 13 -2 6 1 15 8 20 8 4 10 3 5 -4 -4 -7 -3 -12 3 -12 5 0 13 5 16 10 3
6 12 10 18 10 7 0 6 -4 -3 -10 -9 -6 -10 -10 -3 -10 6 0 19 10 27 22 9 13 16
17 16 9 0 -11 3 -11 17 0 11 9 14 10 9 2 -5 -9 -2 -11 8 -7 9 3 13 11 9 18 -4
7 -1 7 7 -1 11 -10 16 -9 26 5 8 10 13 12 14 5 0 -7 5 -13 11 -13 6 0 9 7 6
14 -4 10 -1 13 7 10 8 -3 17 0 21 6 5 8 12 6 25 -5 14 -12 20 -13 26 -4 5 8 3
10 -7 4 -8 -5 -11 -4 -6 0 12 14 78 15 70 1 -4 -6 1 -5 10 3 14 11 17 11 17 0
1 -10 5 -8 14 4 14 18 14 18 19 0 4 -17 5 -17 6 1 1 15 4 16 16 6 11 -9 15 -9
15 -1 0 7 5 9 10 6 6 -4 8 -12 4 -18 -3 -7 2 -3 11 8 12 14 19 16 22 8 3 -7 9
-13 14 -13 6 0 7 6 3 13 -4 6 3 3 15 -7 22 -20 22 -20 16 0 -7 19 -6 19 9 0
16 -20 16 -20 17 0 0 11 3 14 6 6 4 -9 8 -10 18 -2 10 8 15 8 21 -1 4 -8 3 -9
-4 -5 -7 4 -12 2 -12 -3 0 -14 13 -14 28 1 9 9 12 9 12 -1 0 -9 4 -10 13 -4
22 18 46 12 41 -11 -3 -21 -3 -21 11 -2 8 11 15 14 15 7 0 -7 5 -9 10 -6 6 4
18 1 27 -7 14 -11 16 -11 8 1 -6 11 -3 10 15 -2 18 -13 28 -14 44 -5 19 10 19
9 8 -4 -8 -10 -9 -19 -3 -22 5 -4 12 -2 16 4 4 6 11 7 17 4 6 -4 14 -1 18 6 5
8 9 7 13 -5 4 -9 3 -13 -2 -10 -5 3 -12 1 -15 -4 -7 -11 13 -9 33 3 10 7 12 6
6 -4 -6 -10 -3 -12 14 -7 14 3 24 0 28 -9 3 -8 11 -14 19 -14 8 0 14 -6 14
-12 0 -10 2 -10 9 0 6 10 13 11 34 1 15 -7 27 -16 27 -22 0 -5 7 -7 15 -4 8 4
17 1 21 -5 4 -6 3 -8 -4 -4 -6 3 -13 3 -16 -2 -2 -4 7 -9 22 -10 14 -1 31 -7
37 -14 7 -8 6 -9 -4 -3 -9 5 -12 4 -7 -3 4 -6 14 -8 23 -5 11 4 14 3 9 -5 -5
-8 -2 -10 8 -6 11 4 16 0 16 -10 0 -9 5 -16 11 -16 5 0 7 4 4 10 -3 6 1 7 9 4
9 -3 13 -11 9 -17 -4 -7 0 -8 12 -3 16 6 16 4 4 -10 -13 -16 -12 -16 8 -6 19
11 21 9 18 -13 -2 -20 1 -23 11 -14 16 13 34 4 34 -17 0 -8 7 -14 15 -14 8 0
15 -4 15 -8 0 -5 10 -13 23 -18 12 -6 17 -9 10 -8 -7 2 -10 -3 -6 -12 3 -7 14
-14 24 -14 10 0 19 -5 19 -11 0 -5 5 -7 12 -3 8 5 9 2 5 -9 -4 -11 -1 -17 9
-17 8 0 12 -4 9 -10 -3 -5 3 -10 14 -10 12 0 21 -5 21 -11 0 -5 -6 -7 -12 -4
-7 4 5 -9 26 -28 26 -23 36 -39 31 -47 -6 -9 -4 -12 7 -8 16 6 41 -25 44 -54
3 -30 4 -31 19 -18 13 11 15 9 13 -11 -2 -16 2 -23 11 -21 12 3 12 1 0 -14
-12 -15 -12 -17 0 -9 11 6 13 4 8 -8 -4 -12 -2 -14 10 -10 10 4 14 2 9 -5 -3
-6 2 -15 11 -21 10 -6 13 -11 7 -11 -6 0 -11 -7 -11 -15 0 -11 4 -12 14 -3 7
6 16 8 20 4 3 -3 1 -6 -5 -6 -7 0 -11 -8 -9 -17 4 -28 17 -44 30 -36 8 4 7 1
-1 -9 -7 -9 -9 -18 -3 -20 5 -1 11 -10 13 -18 2 -8 9 -21 16 -28 7 -8 10 -18
7 -23 -4 -5 0 -9 7 -9 9 0 9 -3 -2 -10 -10 -6 -11 -10 -2 -10 7 0 12 -13 12
-31 0 -26 3 -30 18 -24 13 5 14 3 5 -6 -6 -6 -9 -18 -6 -27 5 -11 3 -13 -7 -7
-8 5 -11 4 -6 -3 4 -6 12 -9 20 -6 7 3 13 -2 13 -10 0 -8 -4 -13 -9 -10 -12 8
-10 -6 5 -20 8 -8 12 -41 12 -94 -1 -44 2 -79 6 -76 4 2 6 13 4 24 -2 12 0 18
5 15 5 -3 7 -15 5 -27 -3 -12 1 -26 8 -30 9 -7 8 -8 -3 -6 -9 2 -15 -1 -15 -7
0 -5 3 -9 8 -8 4 2 7 -4 7 -13 0 -9 -5 -12 -12 -8 -10 6 -10 4 0 -8 8 -10 9
-18 3 -22 -14 -9 -2 -37 13 -30 6 3 1 -3 -12 -15 -13 -11 -18 -22 -12 -26 5
-3 10 -1 10 5 0 6 5 8 10 5 6 -4 1 -14 -11 -24 -17 -14 -19 -20 -9 -26 9 -5
11 -4 6 3 -5 8 -2 10 8 6 13 -5 12 -9 -7 -26 -12 -11 -17 -17 -11 -14 7 3 15
-1 18 -10 3 -8 2 -13 -3 -10 -5 3 -11 -3 -14 -14 -3 -13 -1 -18 6 -14 8 5 7 2
0 -7 -16 -16 -17 -33 -2 -23 7 4 10 1 7 -7 -3 -8 -10 -13 -16 -12 -8 2 -9 -5
-2 -23 7 -18 7 -23 -1 -18 -8 4 -9 -1 -4 -16 6 -18 4 -22 -7 -18 -11 5 -13 -1
-10 -23 3 -20 0 -29 -9 -29 -11 0 -11 -2 1 -10 13 -8 13 -11 1 -22 -11 -11
-13 -11 -6 1 6 10 4 12 -4 7 -9 -6 -9 -11 1 -24 11 -13 10 -15 -5 -9 -16 6
-16 5 0 -21 17 -26 17 -26 0 -13 -15 12 -17 11 -17 -13 0 -18 -4 -25 -12 -20
-6 4 -8 3 -4 -4 3 -6 2 -14 -4 -17 -8 -5 -7 -11 1 -21 7 -9 8 -14 3 -13 -21 4
-28 -2 -14 -11 13 -8 12 -10 -4 -10 -15 0 -16 -3 -6 -15 11 -13 10 -14 -4 -9
-12 5 -15 2 -9 -12 5 -13 3 -15 -7 -9 -10 6 -12 4 -7 -8 3 -10 2 -17 -3 -17
-6 0 -10 -5 -10 -11 0 -5 5 -7 12 -3 7 4 8 3 4 -5 -4 -6 -11 -9 -16 -6 -4 3
-14 -3 -21 -12 -8 -9 -9 -14 -3 -10 6 3 11 0 11 -7 0 -8 -6 -12 -14 -9 -8 3
-13 -3 -13 -17 0 -11 -4 -19 -9 -16 -5 3 -13 0 -19 -7 -10 -12 -12 -17 -12
-38 0 -5 -4 -8 -9 -4 -6 3 -8 -4 -6 -15 3 -18 0 -20 -18 -14 -12 3 -19 3 -15
-1 10 -11 59 -15 53 -5 -3 5 3 13 12 19 16 9 16 13 4 33 -13 22 -13 22 5 6 18
-16 21 -16 44 3 21 17 22 19 3 10 -31 -16 -35 -14 -15 7 9 11 20 17 23 16 4
-2 19 6 34 18 20 16 24 23 13 29 -10 7 -9 9 5 9 10 0 15 5 12 10 -3 6 1 13 9
16 9 3 13 11 9 18 -4 6 1 5 10 -3 15 -12 17 -12 12 2 -4 8 -1 18 6 23 8 5 10
3 4 -7 -8 -12 -6 -12 8 0 9 7 17 10 17 5 0 -5 5 -2 10 8 7 10 17 14 32 10 13
-3 19 -1 15 5 -4 6 5 10 21 9 15 -1 26 4 25 10 -1 7 6 10 17 7 11 -3 28 1 37
8 14 12 16 12 9 -1 -5 -9 -2 -8 7 2 11 14 16 15 26 5 10 -9 11 -8 5 8 -7 18
-6 19 11 5 17 -14 18 -13 12 3 -6 17 -2 19 49 20 13 1 20 6 17 13 -6 16 14 27
23 13 5 -8 3 -9 -6 -4 -9 5 -11 4 -6 -4 4 -6 12 -9 17 -5 5 3 7 9 4 14 -3 4 2
11 11 14 10 4 13 2 8 -6 -5 -7 -3 -8 5 -4 7 5 10 14 7 22 -3 8 0 11 9 7 8 -3
12 -10 8 -17 -4 -6 1 -5 10 3 19 15 23 26 5 15 -7 -5 -8 -3 -4 5 5 7 14 10 21
8 6 -3 20 4 29 14 9 11 21 17 26 14 6 -3 10 -2 10 4 0 5 9 8 19 6 15 -3 18 1
14 12 -4 11 -2 14 5 9 7 -4 12 -2 12 3 0 6 5 11 11 11 5 0 7 -5 3 -12 -4 -7
-3 -8 5 -4 6 4 9 11 6 16 -3 5 -1 11 5 15 5 3 10 1 10 -5 0 -6 5 -8 10 -5 6 4
8 11 5 16 -4 5 -1 9 5 9 6 0 9 4 5 9 -3 5 -1 12 4 15 5 4 13 1 17 -5 5 -8 3
-9 -7 -4 -8 5 -10 4 -6 0 11 -12 38 -15 31 -4 -7 13 15 41 27 33 5 -3 9 0 9 6
0 6 5 8 12 4 8 -5 9 -2 5 10 -4 9 -3 14 2 11 5 -3 13 0 16 6 4 5 14 8 22 5 9
-4 11 -2 7 6 -5 8 -2 9 11 4 15 -5 16 -4 6 8 -8 10 -9 16 -1 21 5 3 10 3 10
-1 0 -3 7 -1 15 6 8 7 12 17 8 24 -4 6 2 4 12 -4 17 -14 18 -13 11 5 -4 11 -4
16 0 13 12 -13 46 13 40 29 -5 13 -4 14 9 3 10 -9 15 -9 16 -1 1 6 2 17 3 24
1 15 28 17 39 2 5 -5 5 0 2 13 -5 16 -3 22 7 20 7 -2 12 3 10 10 -1 7 5 12 15
10 10 -2 17 2 16 10 -2 6 5 12 15 13 10 0 12 3 5 6 -7 2 -13 10 -13 16 0 5 3
7 7 4 8 -9 34 13 28 23 -3 5 0 12 6 16 7 4 9 3 6 -3 -4 -6 0 -14 9 -17 9 -3
12 -2 9 4 -11 18 5 49 22 43 13 -5 15 -2 10 11 -5 13 -3 17 7 13 16 -6 40 39
29 56 -4 7 2 5 13 -3 10 -8 16 -11 13 -7 -3 4 9 23 27 42 20 21 31 43 29 55
-3 13 1 17 11 13 8 -3 14 1 14 11 0 9 4 16 9 16 5 0 11 9 14 21 3 12 10 18 16
14 15 -9 14 8 -1 24 -11 10 -10 11 4 6 14 -5 16 -2 13 15 -4 18 -2 20 11 9 12
-10 13 -9 8 6 -5 13 -4 16 5 11 7 -5 10 -2 9 6 -2 7 3 12 10 10 10 -2 10 2 2
18 -6 11 -7 20 -3 19 20 -3 24 2 12 18 -13 15 -12 15 8 5 19 -11 21 -9 18 13
-1 14 2 25 7 25 5 0 7 4 3 9 -3 5 -1 12 5 16 5 3 10 1 10 -6 0 -7 3 -10 6 -7
3 4 0 17 -7 30 -11 20 -10 21 2 11 12 -10 15 -8 16 9 1 11 10 27 20 35 10 8
13 12 6 9 -6 -4 -15 -2 -18 4 -4 6 -3 10 2 9 4 -1 15 -1 23 0 13 1 13 2 0 11
-9 6 -11 10 -3 10 7 0 10 7 7 15 -5 11 -2 14 12 9 11 -4 16 -3 11 1 -4 5 1 17
10 28 10 11 12 17 6 13 -8 -4 -13 -1 -13 9 0 10 5 13 12 9 7 -4 8 -3 4 4 -4 7
-2 12 4 12 8 0 8 6 0 20 -9 16 -8 18 5 14 11 -5 13 -2 9 10 -3 9 -1 23 6 31 6
8 9 19 6 24 -4 5 -1 13 5 17 8 5 9 3 4 -6 -5 -9 -4 -11 4 -6 6 4 8 13 4 19
-11 18 -12 38 -2 31 5 -3 7 -10 4 -15 -4 -5 -2 -9 3 -9 5 0 9 14 10 31 0 18 6
37 11 42 6 6 11 16 11 21 0 6 -5 4 -10 -4 -6 -9 -10 -10 -10 -3 0 6 5 15 10
18 6 3 10 11 10 16 0 6 -5 7 -12 3 -7 -4 -8 -3 -4 5 4 6 11 9 16 6 5 -3 11 -1
15 5 3 5 1 10 -6 10 -9 0 -9 3 1 15 7 8 9 23 5 36 -6 17 -4 21 7 16 9 -3 15 1
15 9 0 8 -7 14 -16 15 -14 0 -14 1 -1 7 9 4 16 15 16 25 1 9 2 31 3 48 1 28 3
30 19 18 15 -12 15 -11 -1 8 -14 16 -15 23 -6 29 8 5 10 3 4 -6 -5 -9 -4 -11
4 -6 8 5 9 12 3 19 -5 7 -6 21 -2 32 4 11 3 28 -2 39 -7 12 -7 16 0 12 6 -3
13 -2 17 4 3 5 1 10 -6 10 -8 0 -8 4 -1 13 6 6 11 15 11 20 1 4 1 8 2 10 5 15
3 54 -3 51 -4 -2 -5 10 -3 28 11 85 13 141 5 129 -5 -10 -8 -6 -7 13 1 17 7
24 15 21 7 -3 10 0 7 5 -3 6 -14 10 -23 10 -13 0 -12 4 7 19 l24 19 -21 13
c-19 12 -19 15 -6 40 9 18 10 30 4 34 -6 4 -8 11 -5 16 4 5 2 9 -3 9 -5 0 -8
10 -8 23 1 12 -4 36 -12 52 -14 27 -14 29 1 17 13 -11 15 -10 10 10 -4 13 -11
26 -17 30 -7 5 -6 8 4 8 13 0 13 1 0 10 -11 7 -12 10 -2 10 10 0 9 4 -3 16
-11 11 -13 20 -6 27 11 11 3 39 -15 50 -7 4 -11 14 -8 22 4 8 11 12 18 8 6 -3
3 3 -7 14 -14 16 -15 22 -5 26 8 3 5 6 -7 6 -17 1 -17 3 -5 11 8 5 10 10 4 10
-7 0 -14 7 -17 14 -4 11 -1 13 11 9 11 -4 8 2 -8 16 -14 12 -19 20 -12 16 6
-3 12 -1 12 4 0 6 -5 11 -11 11 -6 0 -9 7 -5 15 3 10 -1 15 -12 15 -10 0 -13
3 -7 8 15 11 12 35 -7 55 -10 9 -18 23 -18 30 0 6 5 4 11 -5 5 -10 14 -18 20
-18 5 0 0 10 -11 22 -11 12 -18 28 -16 35 3 7 2 12 -2 10 -4 -1 -8 2 -9 7 0 5
-9 13 -18 18 -13 8 -14 13 -4 24 8 10 8 14 0 14 -6 0 -10 3 -10 8 4 21 -2 32
-13 26 -8 -5 -7 0 2 11 12 15 12 17 1 10 -11 -6 -13 -4 -8 8 4 11 1 17 -8 17
-9 0 -15 10 -15 26 0 17 -4 23 -12 18 -8 -5 -7 0 2 11 9 11 10 16 3 11 -12 -7
-18 5 -14 28 1 5 -6 6 -15 2 -15 -6 -15 -4 -3 11 12 15 12 16 -5 10 -17 -7
-17 -6 -5 10 12 14 12 16 0 8 -11 -6 -13 -4 -8 8 3 8 -1 21 -9 27 -8 7 -14 18
-14 25 0 7 -7 16 -16 19 -9 3 -14 13 -11 20 3 8 -1 17 -9 20 -9 3 -13 10 -10
15 3 5 -2 15 -12 22 -15 13 -16 12 -4 -3 10 -12 10 -18 1 -24 -7 -4 -9 -3 -5
4 3 6 2 13 -4 17 -6 4 -8 10 -5 15 3 4 2 15 -1 24 -5 12 -10 14 -19 6 -11 -9
-12 -7 -8 9 5 19 -5 26 -30 22 -4 -1 -3 8 4 20 6 12 7 19 1 16 -5 -4 -20 5
-32 18 -13 14 -20 25 -15 25 4 0 14 -8 22 -17 13 -15 13 -14 0 7 -9 14 -22 24
-32 22 -9 -2 -14 1 -11 6 9 16 -5 44 -20 38 -8 -3 -11 2 -9 15 3 15 0 19 -14
14 -11 -3 -18 0 -18 9 0 9 5 12 10 9 6 -3 7 -1 3 5 -4 7 -13 12 -21 12 -7 0
-17 9 -20 20 -3 11 -12 20 -20 20 -14 0 -28 27 -20 40 3 4 -4 6 -15 3 -14 -4
-20 0 -20 11 0 11 -5 14 -12 10 -7 -5 -9 -2 -5 9 4 11 2 14 -9 10 -9 -3 -14 2
-14 16 0 12 -6 21 -15 21 -9 0 -26 10 -38 21 -12 12 -16 19 -9 15 6 -4 12 -5
12 -2 0 3 -10 10 -21 17 -15 8 -19 8 -15 0 4 -6 5 -11 1 -11 -3 0 -10 12 -15
26 -6 14 -14 23 -19 19 -5 -3 -12 -1 -16 5 -4 6 -10 8 -15 5 -4 -3 -7 3 -6 13
0 10 -6 16 -16 16 -10 -1 -15 2 -12 7 3 5 0 9 -5 9 -6 0 -11 7 -11 15 0 8 -5
15 -11 15 -5 0 -7 -5 -3 -12 4 -6 -4 -3 -18 8 -14 10 -24 22 -21 27 2 4 -3 7
-12 7 -10 0 -13 5 -9 12 4 7 3 8 -5 4 -7 -4 -20 2 -32 16 -11 13 -17 17 -14
10 6 -11 3 -12 -14 -3 -11 7 -21 14 -21 17 0 3 6 2 13 -2 8 -5 8 -2 -2 9 -15
19 -26 23 -15 6 4 -7 1 -10 -7 -7 -8 3 -13 11 -11 17 1 7 -2 10 -8 6 -5 -3
-10 -1 -10 5 0 6 -4 8 -10 5 -5 -3 -10 -2 -10 3 0 6 -10 8 -22 5 -23 -5 -23
-5 -3 10 19 14 18 15 -9 10 -22 -5 -27 -3 -21 7 6 10 4 12 -8 7 -12 -4 -17 -1
-18 11 0 14 -2 14 -9 -3 -7 -17 -9 -17 -9 -2 -1 9 -6 17 -12 17 -5 0 -7 6 -3
13 5 8 2 8 -9 -2 -11 -9 -17 -10 -17 -2 0 6 -9 11 -21 11 -13 0 -18 4 -13 12
5 8 2 9 -9 5 -10 -4 -17 -2 -17 4 0 6 -6 9 -14 6 -8 -3 -17 -1 -20 6 -3 9 -8
8 -16 -3 -9 -13 -10 -12 -8 5 2 11 -3 20 -9 21 -7 1 -19 2 -25 3 -9 1 -8 4 2
11 11 7 9 8 -11 6 -13 -1 -30 -5 -36 -9 -7 -5 -9 0 -6 13 3 11 1 20 -5 20 -6
0 -13 -8 -15 -17 -4 -17 -5 -17 -6 0 -1 19 -21 24 -22 5 0 -7 -5 -3 -11 9 -11
23 -38 39 -38 23 0 -6 5 -10 12 -10 6 0 8 -3 5 -7 -4 -3 -15 1 -25 10 -10 10
-21 15 -24 12 -8 -8 -60 14 -54 23 3 4 -10 7 -27 6 -39 -4 -69 4 -62 16 3 5 0
12 -6 16 -7 4 -9 3 -5 -4 3 -6 2 -13 -4 -17 -5 -3 -10 -2 -10 3 0 6 -7 13 -16
16 -8 3 -13 2 -10 -3 4 -5 -3 -7 -14 -4 -11 3 -18 9 -15 12 2 4 -2 8 -10 8 -8
0 -12 -4 -9 -9 3 -4 1 -8 -4 -8 -6 0 -12 7 -16 15 -6 17 -26 20 -26 4 0 -5 5
-7 12 -3 7 4 8 3 4 -5 -6 -9 -11 -9 -21 -1 -8 7 -18 9 -24 6 -5 -4 -17 1 -25
10 -12 11 -16 12 -16 2 0 -10 -2 -10 -9 1 -5 8 -22 14 -37 15 -16 1 -35 5 -41
9 -9 6 -11 3 -7 -8 4 -10 13 -14 23 -10 13 5 13 4 4 -6 -10 -10 -16 -9 -31 4
-10 9 -22 14 -25 10 -4 -3 -7 -1 -7 5 0 7 -5 12 -11 12 -5 0 -8 -4 -5 -9 3 -4
-9 -6 -27 -4 -17 3 -51 5 -74 6 -23 0 -40 4 -36 9 3 5 -5 4 -16 -4 -18 -11
-23 -11 -31 2 -8 12 -10 12 -10 1 0 -11 -4 -11 -18 2 -14 13 -21 14 -31 4z
m22 -10 c3 -8 -1 -14 -9 -14 -15 0 -18 9 -7 20 9 9 10 9 16 -6z m341 -25 c3
-5 -1 -9 -9 -9 -8 0 -12 4 -9 9 3 4 7 8 9 8 2 0 6 -4 9 -8z m-1254 -192 c0 -5
-5 -10 -11 -10 -5 0 -7 5 -4 10 3 6 8 10 11 10 2 0 4 -4 4 -10z m-370 -219 c0
-5 -7 -12 -16 -15 -14 -5 -15 -4 -4 9 14 17 20 19 20 6z m-745 -951 c3 -5 1
-10 -4 -10 -6 0 -11 5 -11 10 0 6 2 10 4 10 3 0 8 -4 11 -10z m4345 -714 c0
-3 -4 -8 -10 -11 -5 -3 -10 -1 -10 4 0 6 5 11 10 11 6 0 10 -2 10 -4z m7 -82
c-3 -3 -12 -4 -19 -1 -8 3 -5 6 6 6 11 1 17 -2 13 -5z m-20 -295 c-6 -10 -13
-16 -16 -13 -3 2 0 9 6 15 6 6 9 19 6 28 -4 13 -3 13 5 2 7 -10 7 -20 -1 -32z
m-3922 -559 c-3 -5 -12 -10 -18 -10 -7 0 -6 4 3 10 19 12 23 12 15 0z m3475
-610 c0 -5 -5 -10 -11 -10 -5 0 -7 5 -4 10 3 6 8 10 11 10 2 0 4 -4 4 -10z
m-10 -25 c0 -2 -6 -8 -13 -14 -10 -8 -14 -7 -14 2 0 8 6 14 14 14 7 0 13 -1
13 -2z m-1120 -30 c-7 -9 -15 -13 -19 -10 -3 3 1 10 9 15 21 14 24 12 10 -5z
m-2635 -453 c-3 -3 -11 0 -18 7 -9 10 -8 11 6 5 10 -3 15 -9 12 -12z m2505
-396 c0 -2 -7 -7 -16 -10 -8 -3 -12 -2 -9 4 6 10 25 14 25 6z"/>
<path d="M5675 7310 c-3 -5 -1 -10 4 -10 6 0 11 5 11 10 0 6 -2 10 -4 10 -3 0
-8 -4 -11 -10z"/>
<path d="M3505 6720 c-4 -6 -11 -7 -17 -4 -7 4 -8 2 -4 -5 6 -9 11 -9 22 0 14
11 18 19 10 19 -3 0 -8 -5 -11 -10z"/>
<path d="M3249 6423 c-13 -16 -12 -17 4 -4 9 7 17 15 17 17 0 8 -8 3 -21 -13z"/>
<path d="M7228 5933 c7 -3 16 -2 19 1 4 3 -2 6 -13 5 -11 0 -14 -3 -6 -6z"/>
<path d="M2820 4951 c0 -5 7 -12 16 -15 14 -5 15 -4 4 9 -14 17 -20 19 -20 6z"/>
<path d="M4237 4803 c-4 -3 -7 -11 -7 -17 0 -6 5 -5 12 2 6 6 9 14 7 17 -3 3
-9 2 -12 -2z"/>
<path d="M4655 4800 c3 -5 8 -10 11 -10 2 0 4 5 4 10 0 6 -5 10 -11 10 -5 0
-7 -4 -4 -10z"/>
<path d="M2875 4601 c-3 -5 -2 -12 3 -15 5 -3 9 1 9 9 0 17 -3 19 -12 6z"/>
<path d="M5529 4277 c6 -8 7 -18 3 -22 -4 -5 -1 -5 6 -1 10 6 10 11 1 22 -6 8
-14 14 -16 14 -3 0 0 -6 6 -13z"/>
<path d="M3040 4111 c0 -6 4 -12 8 -15 5 -3 9 1 9 9 0 8 -4 15 -9 15 -4 0 -8
-4 -8 -9z"/>
<path d="M3405 3938 c0 -28 4 -33 28 -36 18 -2 29 2 33 13 6 14 9 14 25 -4 11
-11 19 -33 19 -50 0 -24 3 -28 20 -24 16 4 20 0 20 -21 0 -14 -4 -26 -10 -26
-5 0 -10 -16 -10 -36 0 -23 4 -33 11 -28 7 4 10 1 7 -7 -3 -8 -10 -13 -15 -12
-13 2 -11 -60 2 -69 6 -5 5 -11 -3 -17 -8 -4 -12 -21 -10 -36 2 -23 8 -29 31
-30 15 0 27 4 28 10 0 5 2 20 3 33 2 13 -3 22 -11 22 -7 0 -13 5 -13 10 0 6 6
10 13 10 7 0 13 13 13 30 1 17 -2 30 -7 30 -5 0 -9 7 -9 15 0 8 5 15 10 15 6
0 10 14 10 30 0 17 -5 30 -11 30 -6 0 -9 10 -7 23 2 15 9 21 21 19 17 -3 18 0
21 36 1 17 28 52 40 52 3 0 6 -6 6 -13 0 -7 11 -13 26 -12 45 0 55 65 10 65
-12 0 -28 -6 -35 -12 -11 -10 -14 -10 -18 0 -6 14 -63 17 -63 2 0 -5 -7 -10
-16 -10 -8 0 -12 5 -9 10 3 6 3 10 -2 11 -4 0 -18 2 -31 3 -13 2 -27 -4 -32
-13 -8 -13 -11 -13 -18 -3 -5 7 -22 15 -38 18 -28 4 -30 2 -29 -28z m165 -28
c0 -5 6 -10 13 -10 18 0 19 -37 0 -44 -40 -16 -68 18 -40 49 14 17 27 19 27 5z"/>
<path d="M3883 3945 c-2 -7 -17 -11 -33 -10 -30 3 -49 -22 -35 -45 3 -6 -1
-13 -9 -16 -18 -7 -23 -64 -6 -64 6 0 10 -7 10 -16 0 -8 -4 -12 -10 -9 -6 4
-10 -8 -10 -29 0 -19 6 -37 13 -39 9 -4 9 -8 -2 -15 -20 -14 -21 -53 -3 -72
14 -13 14 -15 -1 -18 -11 -2 -17 -13 -17 -33 0 -26 3 -29 34 -29 30 0 33 3 32
28 -1 15 -7 30 -15 33 -11 4 -11 7 0 20 19 19 24 60 8 69 -9 6 -8 13 6 27 13
13 20 14 23 5 5 -15 58 -16 67 -2 5 8 11 7 20 0 22 -18 63 -19 70 -2 5 13 9
12 25 -6 24 -25 25 -32 5 -32 -17 0 -21 -45 -5 -55 6 -3 10 -13 10 -21 0 -8
-4 -12 -10 -9 -6 4 -10 -8 -10 -29 0 -33 2 -36 29 -36 24 0 29 5 33 30 3 19 0
31 -10 35 -12 4 -12 8 -1 21 19 23 21 47 4 60 -13 10 -13 13 0 24 17 14 21 75
5 65 -5 -3 -10 1 -10 9 0 9 5 16 10 16 6 0 10 14 10 30 0 17 -4 30 -10 30 -5
0 -10 15 -10 34 0 30 -3 34 -27 34 -15 0 -29 5 -31 11 -5 14 -59 15 -67 1 -5
-8 -12 -7 -22 1 -20 17 -54 19 -60 4z m-7 -40 c7 -17 64 -21 64 -5 0 6 7 10
16 10 8 0 12 -4 9 -10 -4 -6 8 -10 29 -10 20 0 36 4 36 9 0 6 9 9 20 8 14 -1
20 -8 20 -24 0 -13 -4 -23 -10 -23 -15 0 -12 -58 2 -62 9 -3 8 -9 -4 -21 -18
-19 -38 -22 -38 -7 0 15 -57 12 -64 -2 -5 -10 -7 -10 -12 0 -7 14 -74 17 -74
2 0 -5 -4 -10 -10 -10 -5 0 -10 7 -10 16 0 8 -4 12 -10 9 -14 -8 -13 -3 6 35
15 28 15 35 3 44 -19 15 -23 38 -7 47 19 13 28 11 34 -6z"/>
<path d="M4189 3947 c0 -1 -3 -17 -6 -36 -3 -22 -1 -31 6 -26 6 3 11 -1 11 -9
0 -9 -4 -16 -10 -16 -15 0 -12 -58 3 -63 9 -3 9 -7 1 -18 -18 -23 -23 -69 -8
-69 8 0 14 -4 14 -10 0 -5 -6 -10 -13 -10 -18 0 -16 -52 3 -67 13 -10 13 -12
-2 -18 -12 -5 -18 -18 -18 -36 0 -26 4 -29 30 -29 17 0 30 3 31 8 0 4 2 17 5
29 2 13 -3 23 -13 28 -15 5 -15 7 -3 15 18 11 22 50 6 69 -8 11 -8 15 2 18 14
5 16 59 2 68 -15 9 -12 25 4 25 17 0 16 53 -2 60 -18 8 6 37 33 42 14 2 21 -3
23 -19 2 -13 -1 -23 -6 -23 -15 0 -20 -55 -6 -68 7 -6 11 -23 10 -37 -3 -22 1
-25 26 -25 38 0 58 -21 58 -59 0 -27 4 -31 26 -31 14 0 32 -6 40 -14 16 -16
19 -40 4 -31 -6 4 -10 -8 -10 -29 0 -33 2 -36 30 -36 28 0 30 3 30 35 0 19 -4
35 -10 35 -5 0 -10 5 -10 10 0 6 7 10 15 10 18 0 16 51 -4 66 -12 9 -11 12 3
17 19 8 21 47 4 66 -10 11 -10 14 0 18 15 6 16 59 1 68 -7 5 -6 12 3 23 25 31
16 57 -19 60 -32 3 -33 2 -33 -33 0 -22 4 -34 10 -30 15 10 12 -15 -5 -31 -14
-15 -10 -43 9 -57 8 -5 6 -11 -4 -20 -19 -14 -20 -59 -2 -64 17 -6 15 -23 -3
-23 -8 0 -15 -4 -15 -10 0 -5 -9 -10 -20 -10 -15 0 -20 7 -20 26 0 14 4 23 10
19 6 -4 10 8 10 29 0 33 -2 36 -30 36 -16 0 -30 -4 -30 -10 0 -5 -11 -10 -24
-10 -26 0 -31 28 -8 43 14 9 16 67 2 67 -5 0 -10 14 -10 30 0 28 -12 37 -44
31 -5 -1 -12 3 -16 10 -6 9 -57 22 -61 16z"/>
<path d="M4577 3922 c-2 -4 -3 -18 -3 -31 1 -19 7 -25 29 -28 15 -2 27 1 27 7
0 15 19 12 37 -6 10 -10 12 -18 6 -22 -18 -12 -20 -37 -6 -66 8 -15 10 -25 4
-22 -6 4 -12 4 -12 -1 -7 -41 -4 -59 10 -70 15 -11 14 -12 -1 -13 -14 0 -18
-8 -18 -34 0 -19 6 -36 12 -38 9 -3 8 -10 -5 -23 -14 -13 -21 -15 -30 -6 -6 6
-24 11 -39 11 -24 0 -28 -4 -28 -30 0 -27 3 -30 29 -30 17 0 33 5 36 10 9 14
25 12 25 -3 0 -17 49 -14 60 3 7 11 11 10 25 -3 20 -21 57 -16 61 7 4 31 -6
43 -37 44 -16 0 -27 -3 -24 -8 3 -4 -2 -10 -10 -14 -9 -3 -15 0 -15 8 0 8 -6
17 -12 19 -10 4 -10 7 0 14 20 15 23 52 5 62 -9 4 -13 14 -9 20 4 6 11 9 15 7
10 -7 8 46 -3 62 -5 8 -4 18 3 25 14 14 14 50 0 64 -9 9 -7 16 6 29 13 13 19
14 24 5 5 -7 21 -11 37 -9 23 2 30 9 32 31 3 24 0 27 -27 27 -17 0 -31 -4 -31
-10 0 -5 -7 -10 -16 -10 -8 0 -12 5 -9 10 3 6 3 10 -2 11 -50 5 -63 3 -63 -8
0 -17 -16 -17 -23 0 -5 14 -54 21 -60 9z"/>
<path d="M4960 3903 c-11 -8 -24 -12 -29 -9 -17 11 -40 -5 -36 -25 2 -10 -3
-25 -11 -33 -16 -16 -19 -66 -4 -66 6 0 10 -16 10 -36 0 -32 3 -36 20 -31 11
3 27 -1 34 -9 18 -17 73 -18 79 -1 4 9 7 9 14 -1 13 -18 53 -24 59 -8 9 23 49
14 50 -11 1 -13 -4 -23 -10 -23 -7 0 -13 -13 -14 -30 -1 -16 2 -30 8 -30 5 0
10 -11 10 -25 0 -18 -5 -25 -19 -25 -10 0 -21 6 -24 13 -3 8 -19 14 -36 15
-17 0 -29 -4 -26 -9 4 -5 -1 -9 -9 -9 -9 0 -16 5 -16 10 0 15 -57 12 -64 -2
-5 -10 -7 -10 -12 0 -3 6 -21 12 -40 12 -31 0 -34 -3 -34 -30 0 -27 3 -30 29
-30 17 0 33 5 36 10 3 6 11 10 16 10 6 0 8 -4 5 -9 -10 -15 44 -19 59 -5 17
18 25 18 25 0 0 -16 62 -16 67 1 2 6 17 9 34 6 28 -4 29 -2 29 31 0 22 4 35
12 34 15 -4 18 60 2 66 -6 2 -10 16 -9 30 2 14 -1 27 -6 27 -5 1 -19 2 -31 3
-12 0 -23 7 -25 14 -3 6 -17 12 -33 12 -16 0 -31 -6 -34 -12 -5 -10 -7 -10
-12 0 -7 14 -74 17 -74 2 0 -5 -9 -10 -20 -10 -15 0 -20 7 -20 26 0 14 4 23 9
20 5 -3 11 10 13 29 2 21 0 35 -7 35 -16 0 -16 38 0 44 8 3 21 -1 29 -9 16
-17 66 -20 66 -5 0 6 7 10 16 10 8 0 12 -4 9 -10 -4 -6 8 -10 29 -10 19 0 37
6 39 13 4 9 8 9 15 -2 14 -20 62 -24 63 -5 4 48 4 49 -28 52 -26 3 -33 0 -33
-15 -1 -16 -2 -16 -13 -2 -17 22 -54 30 -68 13 -12 -15 -34 -20 -25 -5 10 15
-43 19 -64 4z"/>
<path d="M5269 3908 c-9 -19 -4 -56 8 -65 15 -11 14 -13 0 -19 -20 -7 -23 -59
-4 -68 10 -5 10 -7 0 -12 -15 -7 -18 -74 -3 -74 6 0 10 -4 10 -10 0 -5 -6 -10
-14 -10 -18 0 -15 -52 4 -67 13 -10 13 -12 -2 -18 -12 -5 -18 -18 -18 -36 0
-26 4 -29 30 -29 17 0 30 5 31 13 0 6 2 20 4 29 2 9 -4 19 -13 23 -14 5 -14 7
-2 15 18 11 24 62 8 71 -8 5 -5 13 7 26 13 13 20 14 23 5 5 -16 54 -16 70 0
10 10 14 10 21 0 11 -18 48 -23 61 -7 9 11 15 10 31 -6 22 -22 24 -29 6 -29
-7 0 -14 -13 -15 -30 -1 -16 2 -30 8 -30 5 0 10 -7 10 -16 0 -8 -4 -12 -10 -9
-6 4 -10 -8 -10 -29 0 -33 2 -36 30 -36 28 0 30 3 30 36 0 21 -4 33 -10 29 -5
-3 -10 -2 -10 4 0 5 6 14 13 18 18 11 17 55 -1 69 -13 9 -12 12 2 17 19 8 21
47 4 66 -10 11 -10 14 0 18 16 6 16 60 0 65 -10 4 -9 9 3 20 9 9 15 27 14 40
-1 18 -8 24 -33 26 -30 3 -32 1 -32 -27 0 -17 5 -31 10 -31 6 0 10 -7 10 -15
0 -8 -4 -15 -9 -15 -5 0 -11 -13 -13 -30 -3 -20 0 -30 9 -30 19 0 16 -10 -9
-31 -25 -22 -29 -23 -25 -6 3 17 -54 22 -65 5 -7 -10 -11 -10 -15 0 -2 6 -20
12 -39 12 -21 0 -33 -4 -29 -10 3 -5 1 -10 -5 -10 -6 0 -13 7 -16 15 -4 8 -10
12 -15 9 -5 -3 -9 2 -9 10 0 9 6 16 13 16 7 0 12 13 12 30 1 18 -4 30 -12 30
-17 0 -16 8 2 26 23 23 13 57 -18 61 -15 2 -28 2 -28 1z"/>
<path d="M3026 3677 c3 -10 9 -15 12 -12 3 3 0 11 -7 18 -10 9 -11 8 -5 -6z"/>
<path d="M3194 2914 c6 -14 4 -15 -10 -4 -13 12 -17 11 -25 -1 -7 -12 -9 -12
-9 1 0 13 -1 13 -10 0 -9 -13 -10 -13 -10 0 0 13 -1 13 -10 0 -9 -13 -10 -13
-10 0 0 13 -2 13 -9 0 -6 -8 -7 -18 -5 -22 3 -4 -2 -5 -11 -1 -12 4 -13 8 -5
13 8 5 8 10 2 14 -5 3 -13 -1 -16 -10 -3 -8 -10 -13 -15 -9 -5 3 -13 0 -17 -6
-5 -8 -3 -9 6 -4 8 5 11 4 6 -3 -4 -6 -13 -9 -20 -6 -7 3 -19 -2 -26 -11 -10
-12 -16 -13 -26 -4 -11 9 -14 8 -14 -1 0 -10 -3 -10 -14 -1 -11 9 -16 9 -22 0
-4 -8 -3 -9 4 -5 7 4 12 2 12 -3 0 -6 -12 -11 -26 -11 -20 0 -25 -4 -20 -16 5
-14 4 -15 -8 -5 -11 9 -15 8 -20 -5 -5 -13 -10 -14 -18 -6 -14 14 -38 4 -38
-17 0 -14 -2 -14 -10 -1 -5 8 -10 10 -10 4 0 -7 -11 -15 -25 -18 -17 -4 -23
-11 -18 -19 4 -7 -2 -5 -12 3 -17 14 -18 13 -12 -2 3 -10 2 -18 -3 -18 -6 0
-10 5 -10 11 0 5 -5 7 -10 4 -6 -4 -8 -10 -5 -15 7 -11 -32 -23 -46 -14 -7 4
-10 3 -6 -2 3 -5 -2 -18 -10 -29 -15 -19 -15 -19 -8 4 6 21 5 22 -8 10 -8 -8
-13 -17 -10 -21 2 -5 -2 -8 -10 -8 -8 0 -18 -7 -21 -16 -5 -14 -9 -14 -23 -3
-12 10 -14 10 -9 2 4 -8 2 -13 -4 -13 -6 0 -8 -5 -4 -11 4 -7 -1 -7 -16 1 -20
10 -21 10 -11 -8 8 -16 7 -19 -7 -19 -34 0 -43 -3 -37 -12 6 -11 -32 -36 -54
-36 -8 0 -16 -6 -19 -14 -3 -9 0 -11 8 -6 9 5 11 4 6 -4 -4 -6 -11 -9 -16 -6
-5 3 -16 -5 -24 -17 -9 -12 -16 -17 -16 -10 0 7 -5 10 -11 7 -6 -4 -8 -13 -5
-20 3 -9 -2 -12 -15 -10 -16 3 -19 0 -15 -12 6 -14 4 -14 -11 -2 -9 8 -14 9
-10 3 4 -7 -1 -18 -10 -25 -14 -12 -16 -12 -8 1 4 8 -3 4 -17 -10 -13 -14 -22
-29 -19 -35 3 -5 -3 -4 -12 4 -15 12 -17 12 -11 -2 4 -12 1 -15 -16 -12 -18 3
-20 2 -10 -10 8 -10 8 -15 -1 -21 -8 -5 -10 -3 -5 7 4 8 1 6 -7 -3 -8 -10 -17
-15 -20 -11 -4 3 -7 1 -7 -5 0 -6 -9 -14 -20 -17 -11 -4 -17 -11 -14 -17 5 -8
1 -9 -11 -4 -15 5 -16 4 -6 -8 11 -13 9 -15 -9 -11 -13 2 -20 2 -17 -2 4 -3
-1 -12 -11 -20 -9 -8 -11 -11 -3 -7 10 5 12 3 7 -5 -6 -9 -11 -9 -22 0 -9 7
-14 8 -13 3 3 -20 -2 -35 -10 -29 -6 3 -15 -4 -21 -15 -6 -11 -18 -20 -28 -20
-15 0 -15 -2 -2 -10 12 -8 11 -10 -6 -10 -26 0 -49 -24 -39 -41 6 -8 2 -8 -14
0 -18 10 -20 9 -14 -6 5 -12 2 -15 -10 -10 -17 6 -20 -12 -4 -24 5 -3 1 -9 -8
-12 -9 -4 -13 -3 -10 3 9 15 -8 11 -30 -7 l-20 -16 20 7 c15 5 17 4 9 -4 -6
-6 -20 -12 -32 -13 -11 0 -20 -4 -20 -7 2 -19 -3 -30 -11 -26 -5 3 -12 -1 -15
-10 -4 -10 -12 -14 -22 -10 -14 5 -15 4 -4 -9 10 -12 10 -15 -5 -15 -11 0 -15
-5 -12 -15 4 -8 1 -17 -5 -21 -7 -4 -8 -3 -4 4 4 7 2 12 -4 12 -6 0 -15 -11
-20 -25 -5 -14 -12 -25 -14 -25 -3 0 -3 7 0 15 4 8 2 15 -3 15 -5 0 -9 -9 -10
-20 -2 -21 11 -27 22 -10 4 6 11 8 16 5 5 -3 6 1 3 9 -4 11 0 14 15 11 12 -2
19 0 16 4 -2 5 2 14 10 21 13 11 14 10 9 -5 -5 -13 -1 -11 18 6 13 13 22 28
20 33 -3 5 5 7 17 3 22 -5 22 -5 5 21 -12 18 -13 23 -3 16 14 -11 54 -16 44
-5 -3 2 7 11 22 18 26 12 27 12 3 7 l-25 -5 25 15 c18 11 27 11 32 3 5 -8 8
-5 8 7 0 12 5 16 16 12 8 -3 12 -2 9 4 -3 5 -1 18 5 27 11 17 11 17 6 -1 -5
-15 -4 -17 7 -8 8 7 18 8 22 4 5 -4 5 -2 1 5 -9 15 39 47 55 37 8 -5 10 -2 7
8 -5 11 0 15 20 14 15 -1 27 5 29 14 4 13 3 13 -7 0 -10 -13 -11 -13 -7 0 2 8
14 16 26 16 12 1 29 10 37 20 9 11 12 13 9 5 -5 -9 1 -8 19 4 14 10 26 24 26
32 0 8 5 11 10 8 6 -4 8 -12 4 -18 -3 -7 3 -2 14 10 11 12 22 19 26 16 3 -4 6
-1 6 6 0 7 5 9 12 5 8 -5 9 -2 4 11 -6 16 -4 16 11 4 15 -12 16 -12 10 5 -6
15 -5 17 7 7 11 -9 15 -8 20 4 3 9 10 13 16 10 5 -3 10 -2 10 4 0 5 9 8 20 6
11 -2 23 1 26 7 4 6 3 8 -3 5 -5 -3 -10 0 -10 8 0 11 5 12 20 3 17 -9 19 -8
13 7 -5 15 -4 16 9 5 11 -9 15 -9 15 -1 0 7 5 9 12 5 8 -5 9 -2 5 10 -6 14 -3
15 13 6 14 -8 20 -8 20 0 0 6 4 9 9 5 6 -3 20 5 32 17 20 21 21 21 15 3 -6
-20 -6 -20 9 -1 8 11 15 16 15 10 0 -5 5 -2 10 7 6 11 20 16 40 14 27 -2 29
-1 18 14 -11 13 -9 13 14 -2 26 -16 27 -16 23 4 -4 17 -2 19 10 9 12 -10 15
-10 15 0 0 10 3 10 15 0 13 -11 14 -10 8 6 -6 17 -5 18 12 4 11 -9 16 -10 11
-2 -4 6 -3 12 1 12 5 0 15 -6 22 -12 11 -11 12 -8 6 12 -3 14 -3 21 2 15 12
-15 33 -17 48 -5 10 8 14 7 18 -2 4 -10 6 -10 6 0 1 6 8 12 17 12 9 0 13 -5 9
-12 -4 -7 0 -5 7 4 13 15 15 15 26 0 10 -15 11 -15 5 2 -5 16 -3 17 16 7 12
-7 21 -8 20 -4 -4 24 4 25 17 3 13 -21 15 -22 11 -4 -3 13 1 21 10 21 8 0 12
-6 9 -14 -4 -9 -1 -11 5 -7 6 4 16 0 21 -7 8 -11 9 -11 5 2 -4 12 1 16 23 15
16 -1 28 -3 28 -6 -1 -19 4 -23 12 -10 8 12 11 13 19 1 7 -11 9 -11 14 0 3 11
9 9 21 -6 9 -11 15 -14 14 -6 -4 16 29 24 39 9 3 -7 1 -8 -5 -4 -7 4 -12 2
-12 -3 0 -17 18 -13 29 7 8 14 11 14 12 2 1 -8 1 -18 0 -22 -1 -7 20 -5 34 4
6 4 17 3 25 -3 8 -5 25 -9 38 -9 12 0 22 -6 22 -12 0 -9 4 -8 10 2 8 13 10 12
10 -2 0 -10 5 -18 11 -18 5 0 7 6 4 13 -4 6 0 4 8 -5 8 -10 24 -18 36 -18 14
0 20 -4 15 -11 -4 -7 1 -7 16 1 15 8 20 8 16 1 -4 -6 -2 -11 4 -11 6 0 8 -5 4
-11 -4 -7 1 -7 16 1 18 10 21 9 15 -1 -6 -9 -3 -11 9 -6 11 5 15 3 10 -5 -5
-8 -1 -9 12 -5 18 7 18 6 -1 -9 -20 -16 -20 -16 4 -9 16 5 21 4 17 -4 -4 -7
-1 -9 8 -5 9 3 26 -5 41 -20 14 -14 31 -26 37 -26 5 0 8 -7 5 -14 -4 -11 -1
-13 10 -9 11 4 14 2 9 -5 -4 -7 -2 -10 6 -7 8 3 22 -2 33 -11 11 -8 14 -13 8
-9 -8 4 -11 1 -7 -8 2 -7 11 -14 19 -15 8 -1 22 -3 30 -4 8 -1 12 -5 9 -10 -3
-5 -10 -5 -16 -2 -7 4 -8 2 -4 -5 4 -6 11 -9 15 -7 4 3 18 -8 31 -25 14 -16
31 -29 38 -29 7 0 10 -4 7 -10 -3 -6 1 -7 9 -4 19 7 22 -12 4 -20 -7 -3 -3 -3
9 -1 12 3 25 0 29 -6 5 -8 2 -10 -7 -5 -8 4 -6 1 3 -7 10 -8 15 -17 11 -21 -4
-4 1 -4 12 0 14 6 17 4 13 -8 -4 -8 -1 -15 8 -15 7 0 10 5 7 10 -3 6 6 2 20
-9 15 -10 27 -26 27 -34 0 -13 1 -13 10 0 7 11 10 11 10 2 0 -7 5 -10 10 -7 6
3 10 -2 10 -11 0 -14 3 -15 12 -6 15 15 31 16 22 0 -5 -8 -2 -9 11 -4 14 5 16
4 7 -7 -9 -10 -8 -14 3 -14 8 0 15 4 15 9 0 5 6 3 14 -4 8 -7 11 -17 8 -22 -3
-5 0 -6 7 -2 6 4 9 12 6 17 -4 5 -1 9 4 9 6 0 11 -5 11 -11 0 -6 6 -9 13 -6 6
2 18 -3 25 -12 7 -9 12 -11 11 -6 -3 25 2 28 16 8 16 -22 50 -21 39 1 -3 6 2
2 10 -8 9 -11 16 -15 16 -9 0 6 17 10 40 10 22 -1 40 -4 40 -7 0 -3 9 -6 20
-7 11 -1 20 2 20 8 0 5 10 7 23 5 12 -2 28 2 36 8 12 9 12 7 1 -14 -13 -24
-12 -25 7 -8 19 18 107 32 97 16 -8 -12 28 3 51 21 18 15 19 15 6 -2 -12 -15
-11 -17 8 -14 13 2 26 8 29 13 10 13 43 14 35 0 -3 -6 2 -3 13 6 16 14 23 15
34 5 10 -10 12 -9 8 3 -5 13 1 15 30 12 23 -3 32 -1 28 6 -3 6 -2 14 4 17 6 4
10 3 9 -2 -4 -22 2 -25 16 -7 8 11 15 14 15 7 0 -7 5 -13 10 -13 6 0 9 5 8 11
-2 6 3 14 11 17 9 3 11 0 6 -8 -4 -7 3 -5 17 4 14 9 28 13 33 9 4 -5 5 1 2 12
-7 19 -6 19 7 3 14 -19 32 -25 21 -8 -3 6 1 10 10 10 9 0 13 5 9 11 -5 8 -1 8
14 0 15 -8 23 -8 27 0 4 6 13 8 21 5 8 -3 17 1 20 9 4 8 10 12 15 9 5 -3 9 0
9 7 0 8 4 8 15 -1 13 -11 14 -10 8 6 -6 17 -5 18 11 5 15 -12 17 -12 14 0 -2
9 4 13 16 11 13 -2 16 1 10 10 -5 9 -2 8 11 -2 17 -14 18 -13 12 4 -6 16 -5
17 8 6 13 -11 16 -11 13 0 -2 7 3 15 11 18 10 3 11 0 5 -9 -7 -12 -5 -12 9 -1
9 8 22 10 28 6 8 -4 9 -3 5 4 -12 19 3 35 20 21 11 -9 14 -9 14 0 0 7 5 9 12
5 7 -5 9 -2 5 9 -4 11 -2 14 9 10 8 -3 14 1 14 8 0 11 3 11 10 -1 9 -13 13
-12 29 8 13 15 21 18 24 10 3 -8 6 -5 6 6 1 13 6 17 21 13 11 -3 18 -1 14 4
-5 9 9 13 35 9 9 -1 12 4 7 16 -4 10 -4 15 0 11 4 -4 14 -2 21 5 11 9 17 9 24
-3 6 -10 9 -11 9 -1 0 8 5 10 13 6 9 -6 9 -4 -1 8 -11 14 -9 15 18 13 16 -1
27 1 24 6 -3 5 0 9 6 9 6 0 8 5 4 11 -5 8 -1 8 14 0 19 -10 20 -9 17 11 -4 22
-4 22 10 4 13 -17 15 -17 15 -4 0 9 5 20 12 24 7 5 8 3 3 -7 -7 -11 -5 -11 10
1 10 8 21 14 24 13 3 -1 6 4 5 10 -1 7 13 12 33 12 18 0 34 5 35 10 3 18 23
33 35 28 8 -3 13 4 14 18 0 13 3 18 6 12 2 -7 9 -13 14 -13 6 0 7 5 4 10 -3 6
0 10 9 10 8 0 16 -5 18 -12 3 -7 7 -5 11 6 5 12 3 15 -6 10 -8 -5 -9 -4 -2 4
6 7 23 13 37 14 15 1 24 6 22 10 -3 5 -10 5 -16 2 -7 -4 -8 -2 -4 5 4 6 13 11
19 10 34 -4 40 1 24 19 -10 10 -14 22 -10 27 5 4 2 5 -5 1 -7 -4 -10 -11 -7
-16 3 -5 -8 -7 -25 -5 -26 3 -29 1 -19 -11 14 -17 5 -18 -23 -3 -15 8 -19 8
-13 -1 5 -7 1 -11 -11 -9 -11 1 -27 -1 -37 -6 -10 -4 -31 -8 -46 -9 -16 0 -27
-4 -25 -7 2 -4 -6 -7 -19 -7 -36 -2 -58 -8 -65 -18 -4 -5 -24 -10 -45 -10 -22
0 -42 -6 -47 -13 -5 -9 -10 -10 -14 -3 -4 6 -13 9 -21 6 -8 -4 -12 -10 -9 -15
7 -13 -19 -7 -28 6 -4 6 -8 -1 -8 -15 0 -19 -3 -22 -9 -11 -8 12 -12 13 -26 1
-13 -11 -18 -10 -30 6 -15 19 -15 19 -8 0 4 -13 3 -17 -4 -13 -6 4 -13 2 -15
-4 -3 -8 -11 -5 -23 7 -16 17 -18 17 -12 2 3 -10 2 -20 -3 -23 -6 -4 -10 0
-10 7 0 9 -3 9 -10 -2 -6 -10 -10 -11 -10 -2 0 6 -5 12 -12 12 -6 0 -8 -3 -5
-7 11 -11 -37 -30 -54 -22 -9 5 -21 3 -29 -4 -10 -9 -11 -9 -6 1 4 6 2 12 -3
12 -6 0 -11 -5 -11 -11 0 -8 -6 -7 -17 2 -15 12 -16 12 -11 -3 8 -21 -2 -31
-18 -17 -16 13 -70 5 -66 -10 1 -7 -2 -10 -8 -6 -6 3 -7 12 -4 18 5 9 4 9 -6
0 -7 -6 -19 -9 -28 -6 -11 5 -13 3 -7 -8 7 -11 6 -12 -6 -3 -18 14 -98 12
-107 -2 -7 -12 -44 -15 -37 -4 2 4 -2 7 -10 7 -8 0 -12 -4 -9 -9 3 -4 -2 -8
-11 -8 -10 0 -13 5 -9 12 5 7 3 8 -7 2 -21 -13 -51 -16 -44 -4 3 5 1 10 -4 10
-6 0 -11 -6 -11 -13 0 -7 -8 -13 -19 -13 -12 0 -17 5 -13 16 4 12 2 13 -9 3
-7 -7 -19 -13 -27 -13 -8 0 -10 5 -6 13 5 8 2 8 -9 -2 -14 -11 -20 -11 -32 -1
-13 11 -14 10 -9 -6 6 -15 4 -17 -6 -7 -15 14 -42 6 -34 -11 3 -6 -3 -1 -13
10 -18 20 -21 20 -31 5 -10 -14 -11 -14 -6 2 7 20 -6 23 -25 5 -10 -11 -15 -9
-26 5 -9 13 -14 15 -17 5 -4 -10 -8 -10 -22 2 -21 16 -49 23 -40 9 3 -5 10 -6
16 -3 7 4 8 2 4 -4 -14 -23 -42 2 -37 32 1 5 -4 4 -12 -3 -13 -10 -82 -13 -72
-2 8 7 -29 29 -40 23 -13 -8 -45 -10 -41 -3 2 3 -3 13 -12 21 -14 13 -15 12
-10 -2 8 -20 -16 -18 -35 2 -10 12 -9 12 6 1 9 -8 17 -9 17 -3 0 15 -26 22
-38 10 -8 -8 -13 -7 -18 6 -5 14 -9 14 -22 4 -11 -9 -13 -9 -9 -1 4 6 3 14 -3
18 -5 3 -10 0 -10 -7 -1 -8 -6 -6 -15 6 -8 10 -12 23 -8 29 3 6 1 7 -5 3 -6
-4 -9 -14 -6 -24 3 -10 0 -8 -8 5 -10 16 -17 19 -30 12 -13 -7 -21 -4 -33 13
-13 20 -17 21 -26 8 -9 -12 -10 -11 -6 7 3 14 1 20 -8 17 -7 -3 -19 2 -28 10
-8 9 -26 18 -39 20 -13 2 -22 9 -20 16 1 6 -2 9 -7 6 -15 -9 -41 5 -41 21 0
13 -2 13 -17 2 -11 -10 -14 -10 -9 -1 4 7 2 12 -6 12 -7 0 -19 9 -26 20 -7 11
-19 20 -27 20 -8 0 -15 5 -15 11 0 7 -9 9 -21 6 -15 -4 -18 -2 -10 7 7 8 4 16
-11 25 -11 7 -17 8 -13 2 3 -6 1 -11 -6 -11 -6 0 -9 8 -7 18 3 11 0 19 -8 19
-7 0 -11 -4 -8 -8 2 -4 -1 -11 -7 -15 -8 -4 -9 -3 -5 4 4 7 2 12 -4 12 -6 0
-9 3 -7 8 3 4 -1 12 -8 19 -11 10 -15 10 -18 0 -3 -7 -6 -3 -6 8 -1 17 -3 17
-11 5 -8 -13 -10 -13 -10 2 0 12 -6 16 -21 13 -17 -3 -19 -1 -9 10 9 11 7 12
-8 8 -12 -3 -22 1 -25 11 -3 8 -16 20 -29 27 -20 10 -22 10 -13 -2 6 -8 3 -7
-7 3 -9 10 -28 19 -42 20 -14 1 -26 8 -26 15 0 7 -5 13 -11 13 -5 0 -8 -4 -4
-9 3 -5 0 -13 -7 -17 -7 -4 -10 -4 -6 1 10 10 -19 38 -32 30 -6 -4 -17 -1 -25
5 -8 6 -19 9 -25 5 -5 -3 -10 0 -10 7 0 9 -3 9 -10 -2 -6 -10 -10 -11 -10 -2
0 6 -6 12 -14 12 -8 0 -17 -6 -19 -12 -3 -8 -6 -6 -6 5 -1 9 -6 17 -12 17 -6
0 -8 -7 -5 -16z m2492 -436 c3 -4 -1 -5 -10 -4 -8 1 -18 5 -22 8 -3 4 1 5 10
4 8 -1 18 -5 22 -8z m68 -56 c2 -4 -4 -8 -14 -8 -10 0 -16 4 -14 8 3 4 9 8 14
8 5 0 11 -4 14 -8z m-1449 -21 c3 -5 1 -12 -5 -16 -5 -3 -10 1 -10 9 0 18 6
21 15 7z m642 -58 c0 -9 -4 -10 -14 -2 -7 6 -13 12 -13 14 0 1 6 2 13 2 8 0
14 -6 14 -14z m-3186 -366 c-10 -9 -11 -8 -5 6 3 10 9 15 12 12 3 -3 0 -11 -7
-18z"/>
<path d="M2981 2874 c0 -11 3 -14 6 -6 3 7 2 16 -1 19 -3 4 -6 -2 -5 -13z"/>
<path d="M6655 2699 c-4 -6 -13 -8 -20 -5 -8 3 -16 -3 -18 -12 -4 -15 -5 -15
-6 -1 -1 11 -9 16 -25 15 -13 0 -22 -5 -18 -10 3 -5 -2 -7 -11 -3 -10 4 -17 1
-17 -6 0 -8 -4 -6 -10 3 -8 13 -10 12 -10 -3 0 -17 -1 -17 -16 -3 -19 20 -25
20 -18 1 7 -17 -7 -20 -23 -4 -8 8 -13 7 -18 -2 -5 -8 -4 -10 3 -5 7 4 12 3
12 -2 0 -5 -9 -12 -20 -15 -11 -3 -18 -1 -14 4 3 5 -2 6 -10 3 -9 -3 -13 -10
-10 -15 3 -5 -6 -5 -21 1 -23 9 -25 8 -16 -8 9 -16 6 -18 -24 -16 -23 2 -35
-2 -39 -13 -5 -13 -4 -14 8 -4 11 9 16 9 22 0 4 -7 3 -9 -4 -5 -6 3 -14 2 -17
-4 -5 -8 -11 -7 -21 1 -11 9 -15 8 -20 -5 -3 -9 -9 -14 -13 -11 -4 2 -14 -5
-21 -16 -16 -21 -36 -27 -24 -6 4 6 -2 3 -13 -8 -11 -11 -19 -23 -16 -27 2 -4
-3 -5 -12 -2 -19 7 -57 -24 -48 -39 3 -6 1 -7 -5 -3 -7 4 -12 3 -12 -2 0 -6
-7 -9 -16 -8 -9 0 -19 -6 -21 -14 -4 -13 -3 -13 6 0 6 8 11 10 11 4 0 -19 -13
-24 -28 -11 -13 9 -14 9 -8 0 4 -8 2 -13 -4 -13 -6 0 -8 -5 -4 -12 5 -9 2 -8
-9 1 -15 12 -17 12 -11 -4 5 -13 4 -16 -4 -11 -7 4 -12 2 -12 -4 0 -6 -4 -8
-10 -5 -5 3 -10 1 -10 -5 0 -7 -7 -10 -15 -6 -13 5 -14 2 -4 -17 12 -21 11
-21 -6 -7 -17 14 -18 13 -12 -4 7 -17 6 -17 -10 -5 -15 12 -16 12 -10 -3 4
-13 2 -15 -10 -11 -12 5 -14 3 -8 -8 7 -11 5 -11 -10 1 -10 8 -16 10 -12 3 4
-6 -1 -18 -13 -26 -11 -7 -17 -18 -12 -23 4 -4 -1 -2 -11 6 -15 11 -18 11 -15
0 2 -7 -8 -19 -21 -26 -13 -7 -28 -19 -33 -27 -5 -10 -16 -13 -30 -9 -16 4
-19 2 -13 -8 6 -10 3 -12 -13 -8 -12 4 -22 3 -22 -1 0 -4 -7 -16 -16 -27 -8
-10 -13 -14 -10 -8 3 6 -1 11 -8 11 -15 0 -15 -14 -1 -37 7 -12 6 -13 -6 -3
-19 15 -58 13 -52 -3 3 -8 -4 -11 -20 -10 -20 2 -24 -1 -20 -18 4 -17 3 -18
-6 -6 -6 8 -11 10 -11 4 0 -7 -9 -14 -21 -17 -14 -4 -18 -10 -13 -19 5 -9 2
-8 -11 2 -10 8 -16 10 -12 3 4 -6 3 -14 -3 -18 -5 -3 -10 -1 -10 5 0 6 -5 8
-10 5 -6 -4 -7 -12 -3 -18 4 -7 -2 -5 -12 3 -11 9 -16 10 -11 3 11 -20 -3 -36
-20 -22 -11 9 -14 8 -14 -5 0 -10 -4 -14 -10 -11 -5 3 -10 1 -10 -5 0 -6 -4
-8 -10 -5 -12 7 -52 -19 -45 -28 3 -4 2 -5 -2 -2 -3 3 -13 -1 -21 -8 -9 -6
-13 -7 -10 -2 4 6 -2 11 -12 11 -14 0 -16 -4 -9 -12 8 -9 3 -12 -15 -10 -23 3
-31 -4 -27 -26 2 -17 -10 -7 -19 15 l-9 22 0 -22 c-1 -16 -6 -21 -16 -17 -8 4
-15 1 -15 -5 0 -6 5 -11 11 -11 6 0 9 -7 5 -15 -3 -9 0 -15 9 -15 8 0 20 -9
28 -20 8 -11 17 -17 22 -12 4 4 5 -1 2 -10 -7 -19 8 -34 18 -18 6 10 43 -6 56
-24 4 -5 12 -5 18 -2 6 4 11 0 11 -11 0 -15 2 -16 10 -3 8 12 10 12 10 1 0 -8
7 -11 20 -8 11 3 20 1 20 -4 0 -5 5 -9 11 -9 5 0 7 4 4 10 -9 15 28 0 41 -17
10 -11 13 -11 18 2 4 11 2 14 -6 9 -7 -4 -8 -3 -4 4 7 12 36 5 36 -9 0 -5 5
-9 11 -9 5 0 8 4 4 9 -3 5 0 13 6 17 8 4 9 3 5 -4 -4 -7 -3 -12 3 -12 6 0 8
-8 4 -17 -3 -10 -3 -15 1 -11 4 3 9 14 10 25 3 18 21 22 21 4 0 -5 4 -13 9
-18 5 -4 6 -3 3 3 -4 7 0 17 8 24 13 11 14 10 9 -4 -5 -14 -2 -15 17 -8 13 5
30 7 38 4 8 -3 11 0 7 7 -5 7 -1 9 8 5 9 -3 13 -11 10 -18 -3 -6 1 -3 9 7 15
18 15 18 20 0 4 -17 5 -17 6 0 1 14 5 16 20 7 12 -6 22 -6 26 -1 3 6 14 8 25
6 11 -2 22 0 25 5 3 5 -4 7 -15 5 -11 -2 -18 0 -15 5 3 4 16 7 30 5 14 -1 25
3 25 9 0 6 4 5 9 -3 6 -10 10 -10 16 -1 4 6 13 9 21 6 7 -3 16 -1 19 4 4 6 1
10 -6 10 -7 0 -9 3 -6 6 4 4 14 1 24 -7 11 -9 14 -10 9 -1 -5 8 0 12 16 12 13
0 34 7 46 16 12 8 28 12 35 8 9 -6 9 -4 -1 8 -9 11 -10 18 -2 23 5 3 10 1 10
-5 0 -6 5 -8 10 -5 6 4 8 11 5 16 -3 5 1 6 9 3 9 -3 16 -2 16 4 0 5 9 12 20
15 11 3 19 11 18 19 -2 7 5 12 14 12 10 -1 15 2 12 7 -3 5 0 9 6 9 6 0 8 5 4
13 -5 7 0 6 11 -3 10 -8 16 -10 12 -3 -11 18 4 45 20 38 11 -4 14 0 10 14 -3
15 -1 18 11 14 8 -4 13 -2 9 3 -3 6 -2 16 4 24 6 10 9 11 9 3 0 -7 5 -13 12
-13 6 0 8 3 5 7 -4 3 -1 13 6 21 9 13 9 14 0 8 -7 -4 -13 -3 -13 2 0 5 10 13
23 19 13 6 23 20 24 34 1 13 7 25 13 27 5 2 7 9 3 15 -4 7 0 8 12 3 16 -6 16
-4 4 11 -9 11 -10 14 -1 9 7 -4 12 -2 12 4 0 6 5 8 12 4 6 -4 8 -3 4 4 -3 6
-2 13 4 17 6 4 7 12 3 18 -4 7 2 5 12 -3 14 -11 17 -11 11 -1 -5 8 -3 17 5 22
12 8 12 11 -1 19 -8 5 -10 10 -5 10 6 0 17 -6 25 -12 8 -7 12 -9 8 -4 -11 13
10 46 28 46 10 0 14 6 11 14 -4 10 0 14 13 11 14 -3 17 1 13 12 -5 12 -3 14 7
8 10 -6 12 -4 6 10 -6 16 -4 16 11 4 15 -12 16 -12 10 3 -3 10 -3 17 1 17 21
-4 42 2 42 12 0 5 -5 7 -12 3 -6 -4 -8 -3 -4 4 3 6 15 9 26 7 12 -2 18 0 15 5
-7 11 30 32 39 23 3 -3 6 -1 6 5 0 7 3 11 8 11 18 -3 32 2 32 12 0 5 -5 7 -12
3 -7 -4 -8 -3 -4 5 4 6 12 9 17 5 5 -3 17 0 25 7 12 10 13 9 8 -7 -4 -15 -1
-13 16 6 12 14 18 18 14 10 -6 -12 -4 -13 7 -2 7 6 26 12 41 12 15 0 28 5 28
11 0 5 -5 7 -12 3 -7 -5 -8 -3 -3 5 5 9 10 10 18 2 7 -7 16 -7 30 0 13 8 17 8
13 1 -3 -6 -2 -14 4 -17 6 -4 9 -1 8 7 -2 8 6 13 20 12 12 -1 22 4 22 10 0 6
4 5 9 -3 6 -9 10 -10 16 -2 5 9 10 9 20 1 10 -8 19 -8 34 -1 25 14 34 14 26 1
-3 -5 -2 -10 4 -10 5 0 13 5 16 10 10 16 27 0 20 -19 -5 -12 -3 -13 5 -5 16
16 3 57 -15 50 -10 -3 -12 0 -8 12 6 14 4 15 -8 5 -12 -10 -20 -7 -44 12 -32
28 -44 33 -25 10 11 -13 10 -14 -4 -9 -9 3 -16 10 -16 14 0 5 -8 7 -17 5 -10
-1 -27 5 -37 14 -16 13 -18 13 -11 1 8 -13 7 -13 -9 0 -21 16 -49 23 -40 9 3
-5 10 -6 16 -3 7 5 8 2 4 -5 -6 -9 -12 -9 -25 3 -21 19 -45 21 -35 4 5 -9 2
-9 -9 1 -19 15 -23 26 -5 15 6 -4 8 -3 5 3 -7 11 -36 11 -55 -1 -6 -4 -12 -3
-12 1 0 5 -9 9 -19 9 -16 0 -18 -3 -8 -15 10 -12 9 -13 -11 -2 -12 7 -20 16
-17 22 4 5 4 9 1 9 -3 0 -8 -5 -11 -11z m-490 -199 c-3 -5 -11 -10 -16 -10 -6
0 -7 5 -4 10 3 6 11 10 16 10 6 0 7 -4 4 -10z m135 -364 c0 -2 -7 -7 -16 -10
-8 -3 -12 -2 -9 4 6 10 25 14 25 6z m-294 -271 c-11 -8 -25 -15 -30 -15 -6 1
0 7 14 15 32 19 40 18 16 0z"/>
<path d="M6910 2670 c0 -5 5 -10 11 -10 5 0 7 5 4 10 -3 6 -8 10 -11 10 -2 0
-4 -4 -4 -10z"/>
<path d="M7010 2631 c0 -6 4 -13 10 -16 6 -3 7 1 4 9 -7 18 -14 21 -14 7z"/>
<path d="M7085 2590 c-3 -5 1 -10 10 -10 9 0 13 5 10 10 -3 6 -8 10 -10 10 -2
0 -7 -4 -10 -10z"/>
<path d="M5951 2570 c-1 -8 9 -21 22 -29 20 -13 21 -13 9 1 -7 9 -9 18 -5 20
4 3 3 3 -4 2 -6 -2 -14 2 -17 9 -3 8 -5 6 -5 -3z"/>
<path d="M7110 2561 c0 -6 4 -12 8 -15 5 -3 9 1 9 9 0 8 -4 15 -9 15 -4 0 -8
-4 -8 -9z"/>
<path d="M4010 2511 c0 -5 5 -13 10 -16 6 -3 10 -2 10 4 0 5 -4 13 -10 16 -5
3 -10 2 -10 -4z"/>
<path d="M2586 2437 c3 -10 9 -15 12 -12 3 3 0 11 -7 18 -10 9 -11 8 -5 -6z"/>
<path d="M5260 2411 c0 -7 -5 -9 -12 -5 -7 5 -8 3 -3 -5 5 -9 10 -10 18 -2 6
6 8 14 4 18 -4 3 -7 1 -7 -6z"/>
<path d="M5140 2391 c0 -6 4 -13 10 -16 6 -3 7 1 4 9 -7 18 -14 21 -14 7z"/>
<path d="M4510 2360 c0 -5 5 -10 11 -10 5 0 7 5 4 10 -3 6 -8 10 -11 10 -2 0
-4 -4 -4 -10z"/>
<path d="M3560 2356 c0 -3 9 -10 20 -16 11 -6 20 -8 20 -6 0 3 -9 10 -20 16
-11 6 -20 8 -20 6z"/>
<path d="M2941 2318 c-1 -14 -10 -18 -39 -18 -21 0 -44 -6 -51 -12 -9 -8 -11
-8 -8 -2 5 8 -2 11 -17 10 -20 -1 -22 -4 -13 -16 9 -11 5 -10 -15 3 -26 16
-27 16 -22 0 5 -17 5 -17 -9 0 -13 16 -15 16 -21 2 -4 -11 -2 -14 6 -9 7 4 8
3 4 -5 -6 -9 -11 -9 -24 1 -12 10 -14 10 -8 1 4 -7 3 -13 -3 -13 -5 0 -12 4
-16 10 -3 5 -12 7 -20 4 -8 -4 -12 -11 -9 -16 4 -6 10 -5 16 3 8 12 9 12 6 0
-5 -16 -38 -24 -38 -10 0 6 -5 7 -10 4 -6 -4 -7 -12 -3 -18 3 -7 -4 -3 -16 7
-17 16 -20 16 -16 4 8 -21 -14 -35 -26 -17 -7 11 -9 11 -9 -3 0 -12 -6 -15
-21 -11 -15 4 -28 -1 -41 -18 -11 -13 -17 -18 -13 -11 3 6 1 12 -4 12 -6 0
-11 -5 -11 -11 0 -8 -6 -7 -17 2 -15 12 -16 12 -10 -4 6 -15 3 -17 -13 -12
-12 4 -20 2 -20 -5 0 -12 -45 -33 -75 -35 -11 0 -19 -7 -17 -15 2 -10 0 -11
-11 -2 -11 10 -17 9 -28 -5 -13 -17 -13 -17 6 -3 19 14 19 14 6 -2 -7 -10 -17
-16 -21 -13 -5 3 -10 2 -13 -2 -2 -5 -2 -3 -1 4 2 7 -2 15 -8 19 -6 4 -8 3 -5
-3 4 -5 -5 -16 -18 -23 -13 -7 -21 -18 -18 -24 4 -6 -2 -4 -12 4 -11 9 -16 10
-11 3 4 -8 2 -13 -4 -13 -7 0 -20 -10 -29 -22 -14 -16 -20 -18 -26 -8 -6 9 -4
11 5 5 9 -5 11 -4 6 4 -6 9 -11 9 -22 0 -7 -6 -11 -15 -8 -20 3 -5 0 -9 -5 -9
-6 0 -11 6 -11 13 0 8 -3 7 -10 -3 -6 -9 -5 -19 3 -29 8 -9 2 -8 -16 4 -24 15
-27 16 -21 1 5 -12 2 -15 -12 -9 -11 4 -15 3 -11 -4 9 -15 -18 -24 -31 -11 -7
7 -10 2 -7 -18 2 -26 2 -27 -11 -9 -8 10 -17 15 -21 12 -3 -4 -2 -7 2 -7 5 0
0 -6 -11 -14 -13 -10 -23 -11 -32 -4 -10 8 -11 7 -6 -7 6 -15 3 -17 -13 -13
-16 4 -23 0 -27 -16 -5 -16 -8 -18 -15 -7 -6 9 -10 10 -12 2 -3 -7 -14 -13
-26 -13 -12 -1 -19 -7 -16 -14 3 -8 -3 -11 -14 -9 -10 1 -26 -4 -35 -12 -9 -8
-21 -12 -27 -9 -5 4 -13 2 -16 -4 -4 -6 -1 -9 6 -8 6 2 13 -2 16 -9 3 -8 -3
-11 -18 -8 -12 3 -28 0 -35 -6 -7 -6 -19 -7 -25 -3 -8 4 -9 3 -5 -4 4 -7 1
-12 -8 -12 -9 0 -16 -5 -16 -11 0 -5 5 -7 12 -3 7 4 8 3 4 -4 -4 -6 -13 -9
-21 -5 -18 6 -20 -11 -2 -25 10 -8 16 -6 25 9 7 10 18 19 25 19 8 0 7 -4 -3
-10 -9 -6 -10 -10 -3 -10 6 0 15 5 18 10 3 6 11 10 16 10 6 0 7 -5 3 -12 -4
-6 -3 -8 4 -4 6 3 9 15 7 26 -3 17 -1 19 16 10 12 -7 19 -7 19 -1 0 6 7 8 15
5 15 -6 22 11 8 19 -5 2 -2 2 6 0 7 -2 21 2 29 9 9 7 13 8 9 2 -3 -6 1 -11 9
-11 8 0 13 6 10 13 -3 8 -1 16 4 19 6 4 10 0 10 -7 0 -9 3 -9 10 2 5 8 10 11
10 6 0 -6 6 -2 13 9 11 14 16 15 22 5 6 -9 4 -11 -5 -5 -9 5 -11 4 -6 -4 4 -6
12 -9 17 -5 5 3 6 10 3 16 -5 7 -1 9 9 5 12 -4 17 -1 17 11 0 15 2 15 10 2 9
-14 14 -7 11 13 -1 5 3 6 9 2 6 -4 17 -2 25 5 9 7 15 8 20 0 8 -13 25 -13 25
1 0 5 -5 7 -12 3 -7 -4 -8 -3 -4 5 4 6 11 9 16 6 5 -3 11 -1 15 5 3 6 17 8 31
6 13 -3 24 -1 24 4 0 5 9 7 20 5 11 -2 18 0 15 5 -3 5 -1 11 5 15 5 3 10 -2
11 -12 0 -14 2 -14 9 5 5 12 15 22 22 22 10 0 10 -2 0 -9 -11 -7 -10 -9 3 -14
9 -4 13 -3 10 3 -3 6 -1 10 5 10 6 0 8 5 3 13 -4 6 6 4 22 -7 17 -10 24 -13
18 -5 -21 21 -15 29 13 19 32 -13 43 -13 24 0 -9 6 -10 10 -3 10 6 0 19 3 29
7 12 4 15 3 10 -5 -4 -7 -3 -12 1 -12 5 0 14 9 21 20 8 13 17 18 25 13 17 -11
38 -13 32 -3 -3 4 2 11 11 14 8 3 13 2 10 -3 -3 -5 1 -11 8 -14 10 -4 13 0 11
13 -4 19 -2 19 21 4 21 -14 24 -15 18 -1 -3 8 0 18 7 23 7 4 10 3 5 -4 -3 -6
-2 -13 4 -17 5 -3 10 -1 10 4 0 6 5 11 11 11 5 0 7 -4 4 -10 -3 -5 -2 -10 3
-10 6 0 13 8 16 17 5 12 10 13 18 5 8 -8 15 -7 25 6 12 16 12 15 6 -3 -6 -17
-4 -18 9 -8 8 7 18 10 22 6 13 -13 38 -12 32 2 -3 9 0 12 9 8 8 -3 12 -10 8
-17 -5 -8 -3 -8 8 0 8 6 22 14 31 17 13 5 15 2 11 -11 -6 -15 -4 -15 14 1 21
18 22 18 32 0 8 -14 10 -14 11 -3 0 13 1 13 10 0 9 -13 10 -13 10 0 0 13 1 13
10 0 7 -10 10 -11 10 -2 0 9 8 8 28 -5 26 -17 26 -17 13 0 -12 15 -12 17 3 11
9 -3 16 -11 16 -18 0 -6 5 -4 10 4 8 13 10 13 10 -1 0 -10 9 -17 25 -18 48 -3
55 -4 55 -13 0 -5 4 -7 9 -4 11 7 23 -22 14 -36 -4 -7 -1 -8 6 -4 7 5 10 15 6
23 -4 13 -3 14 10 3 8 -7 12 -17 8 -24 -4 -6 -1 -6 9 2 13 10 18 9 29 -5 13
-17 13 -17 -6 -3 -18 14 -19 13 -8 -1 7 -9 11 -18 8 -20 -2 -3 4 -5 15 -5 10
0 17 3 15 6 -2 4 2 7 10 7 8 0 13 -2 11 -5 -6 -6 32 -42 45 -42 6 0 9 -7 6
-14 -4 -10 -1 -13 9 -9 8 3 23 -4 33 -16 10 -11 25 -21 34 -21 9 0 19 -9 22
-21 5 -15 10 -17 19 -10 16 14 27 4 19 -17 -4 -9 -2 -13 4 -9 6 4 18 0 26 -8
9 -8 23 -15 32 -15 11 0 15 -5 12 -14 -4 -11 -1 -13 10 -9 12 5 14 3 8 -8 -7
-11 -6 -12 6 -2 12 10 17 8 27 -8 7 -11 17 -17 22 -14 6 3 10 2 10 -4 0 -5 -6
-11 -12 -13 -7 -3 -2 -7 10 -10 12 -4 20 -2 17 2 -3 5 0 12 6 16 7 4 9 3 6 -2
-9 -15 8 -35 31 -37 11 0 18 -5 16 -9 -3 -4 4 -8 14 -8 11 0 23 -7 26 -16 3
-8 10 -12 16 -9 5 3 10 1 10 -5 0 -7 7 -9 15 -6 9 3 18 -1 21 -9 4 -8 15 -15
26 -15 13 0 17 -4 12 -12 -5 -9 -2 -9 9 1 15 11 17 11 17 -1 0 -10 9 -15 23
-14 12 1 28 -7 35 -19 13 -19 13 -19 7 0 -3 11 -3 16 1 12 4 -4 14 -1 23 5 13
10 14 10 4 -2 -19 -21 -16 -35 4 -19 13 11 15 11 9 1 -6 -10 -2 -13 15 -10 17
2 23 -1 21 -11 -3 -12 0 -12 12 -1 15 11 20 7 17 -13 -1 -5 3 -6 9 -2 6 3 8
11 5 16 -4 5 -1 9 4 9 6 0 11 -4 11 -10 0 -14 37 -12 44 3 3 6 3 1 0 -13 -5
-23 -4 -24 9 -8 15 19 33 25 22 9 -3 -5 -1 -12 5 -16 6 -4 7 -11 4 -17 -4 -7
-2 -8 5 -4 6 4 9 12 6 17 -4 5 0 9 7 10 70 5 96 4 92 -3 -3 -5 -10 -5 -16 -2
-7 4 -8 2 -4 -4 8 -13 36 -5 36 12 0 6 4 5 9 -4 6 -8 7 -19 3 -25 -3 -5 1 -4
10 2 8 7 18 9 22 5 4 -4 6 0 4 8 -2 9 5 15 20 16 12 1 22 -3 22 -8 0 -6 -7 -7
-16 -4 -14 5 -15 4 -4 -9 11 -13 14 -12 29 7 18 21 47 17 34 -5 -3 -7 2 -5 13
4 10 9 26 20 34 24 12 7 13 6 3 -6 -11 -13 -9 -15 8 -14 11 1 24 6 27 12 4 6
18 14 31 18 16 5 21 4 17 -4 -4 -6 -2 -11 3 -11 6 0 11 6 11 13 0 8 3 7 10 -3
8 -13 11 -13 22 -1 11 12 10 13 -2 6 -12 -6 -12 -5 -3 5 13 14 36 4 27 -13 -3
-7 1 -4 9 6 10 12 17 15 22 7 5 -8 11 -8 19 -1 7 6 16 8 19 4 4 -3 7 -3 7 1 0
11 -27 37 -37 35 -22 -4 -54 2 -49 9 7 12 -36 13 -50 1 -9 -7 -17 -3 -28 13
-9 12 -16 19 -16 14 0 -5 -9 -1 -19 8 -14 13 -21 14 -26 6 -6 -9 -9 -9 -15 0
-4 7 -20 13 -34 13 -20 0 -26 3 -21 15 4 12 3 13 -10 2 -12 -10 -15 -9 -16 6
0 18 -1 18 -9 -1 -8 -19 -9 -19 -9 3 -1 13 -5 20 -11 17 -6 -4 -18 -1 -27 7
-12 9 -15 9 -9 1 4 -7 2 -13 -3 -13 -6 0 -11 7 -11 16 0 11 -6 15 -20 11 -11
-3 -18 -1 -14 4 3 5 0 9 -6 9 -6 0 -8 6 -4 13 4 6 3 9 -1 4 -5 -4 -17 1 -28
10 -11 10 -17 13 -14 6 4 -6 3 -14 -3 -18 -5 -3 -10 1 -10 9 0 9 -3 15 -7 14
-5 -1 -18 1 -30 6 -15 5 -20 12 -16 24 6 15 5 15 -10 3 -12 -9 -17 -10 -17 -2
0 7 -5 9 -12 5 -6 -4 -8 -3 -5 3 4 6 -3 19 -15 29 -12 11 -18 13 -14 7 4 -7 2
-13 -3 -13 -6 0 -11 5 -11 10 0 6 -6 10 -13 10 -8 0 -20 11 -27 25 -7 14 -15
23 -18 20 -3 -2 1 -11 8 -20 22 -26 3 -16 -28 15 -16 16 -32 26 -36 23 -3 -4
-6 1 -6 11 0 9 -3 15 -7 13 -11 -7 -33 19 -25 28 4 4 -2 3 -14 -3 -16 -9 -21
-8 -21 3 0 8 4 12 8 9 4 -2 10 0 13 4 3 5 -5 8 -17 8 -28 -3 -57 21 -57 47 0
14 -3 17 -12 9 -10 -7 -18 -3 -32 16 -19 27 -19 27 0 12 11 -9 10 -6 -3 7 -15
14 -30 20 -41 16 -14 -6 -15 -4 -4 9 9 11 10 18 2 23 -5 3 -10 1 -10 -6 0 -18
-40 21 -41 40 0 13 -2 13 -6 2 -4 -10 -10 -5 -20 15 -7 16 -11 21 -8 12 2 -10
0 -18 -5 -18 -10 0 -14 15 -11 34 1 5 -6 6 -15 2 -15 -6 -15 -4 -3 10 13 16
12 16 -10 5 -19 -11 -22 -11 -16 0 6 9 3 11 -8 6 -12 -4 -14 -2 -10 10 5 12 2
15 -9 11 -16 -7 -38 9 -38 27 0 5 7 1 15 -9 8 -11 15 -15 15 -9 0 20 -25 34
-38 21 -9 -9 -12 -9 -12 1 0 11 -3 11 -14 2 -12 -10 -13 -8 -8 11 5 21 4 22
-11 9 -9 -7 -18 -11 -18 -7 -1 3 -2 10 -3 15 0 5 -5 13 -10 18 -5 5 -6 3 -2
-4 4 -7 2 -13 -3 -13 -6 0 -11 5 -11 11 0 6 -9 9 -19 6 -11 -3 -22 1 -25 8 -2
7 -15 12 -28 11 -13 -1 -31 4 -41 13 -13 11 -20 12 -29 3 -7 -7 -19 -12 -27
-12 -14 0 -14 1 -1 10 8 5 10 10 5 10 -6 0 -17 -6 -24 -12 -10 -9 -12 -9 -7
-1 3 6 2 15 -4 18 -6 4 -10 3 -9 -2 3 -20 -2 -27 -10 -14 -8 12 -12 12 -25 2
-15 -12 -20 -8 -17 12 1 5 -3 6 -9 2 -6 -3 -8 -11 -5 -16 4 -5 -1 -9 -9 -9 -8
0 -17 8 -19 18 -4 16 -5 16 -6 0z m189 -23 c0 -8 -2 -15 -4 -15 -2 0 -6 7 -10
15 -3 8 -1 15 4 15 6 0 10 -7 10 -15z m70 -11 c0 -8 -19 -13 -24 -6 -3 5 1 9
9 9 8 0 15 -2 15 -3z m-1418 -456 c-7 -7 -12 -8 -12 -2 0 6 3 14 7 17 3 4 9 5
12 2 2 -3 -1 -11 -7 -17z m2283 -138 c3 -5 1 -10 -4 -10 -6 0 -11 5 -11 10 0
6 2 10 4 10 3 0 8 -4 11 -10z m260 -110 c3 -5 1 -10 -4 -10 -6 0 -11 5 -11 10
0 6 2 10 4 10 3 0 8 -4 11 -10z m172 -72 c-3 -8 -6 -5 -6 6 -1 11 2 17 5 13 3
-3 4 -12 1 -19z"/>
<path d="M2366 2148 c3 -5 10 -6 15 -3 13 9 11 12 -6 12 -8 0 -12 -4 -9 -9z"/>
<path d="M3526 2088 c3 -5 10 -6 15 -3 13 9 11 12 -6 12 -8 0 -12 -4 -9 -9z"/>
<path d="M3660 1972 c0 -5 7 -15 15 -22 8 -7 15 -9 15 -6 0 4 -7 14 -15 22 -8
9 -15 11 -15 6z"/>
<path d="M4306 1938 c3 -5 10 -6 15 -3 13 9 11 12 -6 12 -8 0 -12 -4 -9 -9z"/>
<path d="M4470 1940 c0 -5 5 -10 11 -10 5 0 7 5 4 10 -3 6 -8 10 -11 10 -2 0
-4 -4 -4 -10z"/>
<path d="M1628 1883 c7 -3 16 -2 19 1 4 3 -2 6 -13 5 -11 0 -14 -3 -6 -6z"/>
<path d="M5226 1867 c3 -10 9 -15 12 -12 3 3 0 11 -7 18 -10 9 -11 8 -5 -6z"/>
<path d="M5290 1821 c0 -9 30 -24 36 -18 2 1 -6 8 -16 15 -11 7 -20 8 -20 3z"/>
<path d="M1596 1745 c-3 -9 -11 -13 -17 -9 -7 4 -10 -1 -7 -12 2 -10 12 -20
23 -21 11 -2 14 0 8 3 -22 10 -14 22 10 16 20 -5 21 -4 7 14 -8 10 -15 20 -16
22 -1 2 -4 -4 -8 -13z"/>
<path d="M1517 1698 c-9 -6 -9 -8 1 -8 8 0 10 -5 6 -12 -5 -10 -4 -10 6 -1 7
6 19 9 26 6 8 -3 14 1 14 10 0 16 -31 19 -53 5z"/>
<path d="M3416 1692 c-3 -5 1 -9 9 -9 8 0 12 4 9 9 -3 4 -7 8 -9 8 -2 0 -6 -4
-9 -8z"/>
<path d="M1480 1686 c0 -2 7 -7 16 -10 8 -3 12 -2 9 4 -6 10 -25 14 -25 6z"/>
<path d="M1469 1653 c-13 -16 -12 -17 4 -4 9 7 17 15 17 17 0 8 -8 3 -21 -13z"/>
<path d="M1495 1650 c-3 -6 1 -7 9 -4 18 7 21 14 7 14 -6 0 -13 -4 -16 -10z"/>
<path d="M4375 1560 c3 -5 8 -10 11 -10 2 0 4 5 4 10 0 6 -5 10 -11 10 -5 0
-7 -4 -4 -10z"/>
<path d="M4055 1460 c-3 -5 -1 -10 4 -10 6 0 11 5 11 10 0 6 -2 10 -4 10 -3 0
-8 -4 -11 -10z"/>
</g>
</svg>
